solid OpenSCAD_Model
  facet normal 0.991445 0.130527 0
    outer loop
      vertex 7.5 0 11
      vertex 7.24444 1.94114 0
      vertex 7.24444 1.94114 11
    endloop
  endfacet
  facet normal 0.991445 0.130527 0
    outer loop
      vertex 7.24444 1.94114 0
      vertex 7.5 0 11
      vertex 7.5 0 0
    endloop
  endfacet
  facet normal -0.991445 0.130527 0
    outer loop
      vertex -7.5 0 0
      vertex -7.24444 1.94114 11
      vertex -7.24444 1.94114 0
    endloop
  endfacet
  facet normal -0.991445 0.130527 0
    outer loop
      vertex -7.24444 1.94114 11
      vertex -7.5 0 0
      vertex -7.5 0 11
    endloop
  endfacet
  facet normal 0.130527 0.991445 -0
    outer loop
      vertex 1.94114 7.24444 0
      vertex 0 7.5 11
      vertex 1.94114 7.24444 11
    endloop
  endfacet
  facet normal 0.130527 0.991445 0
    outer loop
      vertex 0 7.5 11
      vertex 1.94114 7.24444 0
      vertex 0 7.5 0
    endloop
  endfacet
  facet normal -0.130527 -0.991445 0
    outer loop
      vertex -1.94114 -7.24444 0
      vertex 0 -7.5 11
      vertex -1.94114 -7.24444 11
    endloop
  endfacet
  facet normal -0.130527 -0.991445 -0
    outer loop
      vertex 0 -7.5 11
      vertex -1.94114 -7.24444 0
      vertex 0 -7.5 0
    endloop
  endfacet
  facet normal -0.793354 -0.608761 0
    outer loop
      vertex -5.3033 -5.3033 0
      vertex -6.49519 -3.75 11
      vertex -6.49519 -3.75 0
    endloop
  endfacet
  facet normal -0.793354 -0.608761 0
    outer loop
      vertex -6.49519 -3.75 11
      vertex -5.3033 -5.3033 0
      vertex -5.3033 -5.3033 11
    endloop
  endfacet
  facet normal 0 0 -1
    outer loop
      vertex 7.24444 -1.94114 0
      vertex 7.24444 1.94114 0
      vertex 7.5 0 0
    endloop
  endfacet
  facet normal 0 0 -1
    outer loop
      vertex 6.49519 -3.75 0
      vertex 7.24444 1.94114 0
      vertex 7.24444 -1.94114 0
    endloop
  endfacet
  facet normal 0 0 -1
    outer loop
      vertex 6.49519 -3.75 0
      vertex 6.49519 3.75 0
      vertex 7.24444 1.94114 0
    endloop
  endfacet
  facet normal 0 0 -1
    outer loop
      vertex 5.3033 -5.3033 0
      vertex 6.49519 3.75 0
      vertex 6.49519 -3.75 0
    endloop
  endfacet
  facet normal 0 0 -1
    outer loop
      vertex 5.3033 -5.3033 0
      vertex 5.3033 5.3033 0
      vertex 6.49519 3.75 0
    endloop
  endfacet
  facet normal 0 0 -1
    outer loop
      vertex 3.75 -6.49519 0
      vertex 5.3033 5.3033 0
      vertex 5.3033 -5.3033 0
    endloop
  endfacet
  facet normal 0 0 -1
    outer loop
      vertex 3.75 -6.49519 0
      vertex 3.75 6.49519 0
      vertex 5.3033 5.3033 0
    endloop
  endfacet
  facet normal 0 0 -1
    outer loop
      vertex 1.94114 -7.24444 0
      vertex 3.75 6.49519 0
      vertex 3.75 -6.49519 0
    endloop
  endfacet
  facet normal 0 0 -1
    outer loop
      vertex 1.94114 -7.24444 0
      vertex 1.94114 7.24444 0
      vertex 3.75 6.49519 0
    endloop
  endfacet
  facet normal 0 0 -1
    outer loop
      vertex 0 -7.5 0
      vertex 1.94114 7.24444 0
      vertex 1.94114 -7.24444 0
    endloop
  endfacet
  facet normal 0 0 -1
    outer loop
      vertex 0 -7.5 0
      vertex 0 7.5 0
      vertex 1.94114 7.24444 0
    endloop
  endfacet
  facet normal 0 0 -1
    outer loop
      vertex -1.94114 -7.24444 0
      vertex 0 7.5 0
      vertex 0 -7.5 0
    endloop
  endfacet
  facet normal 0 0 -1
    outer loop
      vertex -1.94114 -7.24444 0
      vertex -1.94114 7.24444 0
      vertex 0 7.5 0
    endloop
  endfacet
  facet normal 0 0 -1
    outer loop
      vertex -1.94114 -7.24444 0
      vertex -3.75 6.49519 0
      vertex -1.94114 7.24444 0
    endloop
  endfacet
  facet normal 0 0 -1
    outer loop
      vertex -3.75 -6.49519 0
      vertex -3.75 6.49519 0
      vertex -1.94114 -7.24444 0
    endloop
  endfacet
  facet normal 0 0 -1
    outer loop
      vertex -5.3033 -5.3033 0
      vertex -3.75 6.49519 0
      vertex -3.75 -6.49519 0
    endloop
  endfacet
  facet normal 0 0 -1
    outer loop
      vertex -5.3033 -5.3033 0
      vertex -5.3033 5.3033 0
      vertex -3.75 6.49519 0
    endloop
  endfacet
  facet normal 0 0 -1
    outer loop
      vertex -6.49519 -3.75 0
      vertex -5.3033 5.3033 0
      vertex -5.3033 -5.3033 0
    endloop
  endfacet
  facet normal 0 0 -1
    outer loop
      vertex -6.49519 -3.75 0
      vertex -6.49519 3.75 0
      vertex -5.3033 5.3033 0
    endloop
  endfacet
  facet normal 0 0 -1
    outer loop
      vertex -7.24444 -1.94114 0
      vertex -6.49519 3.75 0
      vertex -6.49519 -3.75 0
    endloop
  endfacet
  facet normal 0 0 -1
    outer loop
      vertex -7.24444 -1.94114 0
      vertex -7.24444 1.94114 0
      vertex -6.49519 3.75 0
    endloop
  endfacet
  facet normal 0 -0 -1
    outer loop
      vertex -7.24444 1.94114 0
      vertex -7.24444 -1.94114 0
      vertex -7.5 0 0
    endloop
  endfacet
  facet normal 0.793354 0.608761 0
    outer loop
      vertex 6.49519 3.75 11
      vertex 5.3033 5.3033 0
      vertex 5.3033 5.3033 11
    endloop
  endfacet
  facet normal 0.793354 0.608761 0
    outer loop
      vertex 5.3033 5.3033 0
      vertex 6.49519 3.75 11
      vertex 6.49519 3.75 0
    endloop
  endfacet
  facet normal 0.923879 0.382684 0
    outer loop
      vertex 7.24444 1.94114 11
      vertex 6.49519 3.75 0
      vertex 6.49519 3.75 11
    endloop
  endfacet
  facet normal 0.923879 0.382684 0
    outer loop
      vertex 6.49519 3.75 0
      vertex 7.24444 1.94114 11
      vertex 7.24444 1.94114 0
    endloop
  endfacet
  facet normal 0.608761 0.793354 -0
    outer loop
      vertex 5.3033 5.3033 0
      vertex 3.75 6.49519 11
      vertex 5.3033 5.3033 11
    endloop
  endfacet
  facet normal 0.608761 0.793354 0
    outer loop
      vertex 3.75 6.49519 11
      vertex 5.3033 5.3033 0
      vertex 3.75 6.49519 0
    endloop
  endfacet
  facet normal -0.608761 0.793354 0
    outer loop
      vertex -3.75 6.49519 0
      vertex -5.3033 5.3033 11
      vertex -3.75 6.49519 11
    endloop
  endfacet
  facet normal -0.608761 0.793354 0
    outer loop
      vertex -5.3033 5.3033 11
      vertex -3.75 6.49519 0
      vertex -5.3033 5.3033 0
    endloop
  endfacet
  facet normal 0 0 1
    outer loop
      vertex 5.5 0 11
      vertex 7.5 0 11
      vertex 7.24444 1.94114 11
    endloop
  endfacet
  facet normal 0 0 1
    outer loop
      vertex 5.16831 1.88111 11
      vertex 7.24444 1.94114 11
      vertex 6.49519 3.75 11
    endloop
  endfacet
  facet normal 0 0 1
    outer loop
      vertex 7.5 0 11
      vertex 5.5 0 11
      vertex 7.24444 -1.94114 11
    endloop
  endfacet
  facet normal -0 0 1
    outer loop
      vertex 5.16831 -1.88111 11
      vertex 7.24444 -1.94114 11
      vertex 5.5 0 11
    endloop
  endfacet
  facet normal 0 0 1
    outer loop
      vertex 4.21324 3.53533 11
      vertex 6.49519 3.75 11
      vertex 5.3033 5.3033 11
    endloop
  endfacet
  facet normal 0 0 1
    outer loop
      vertex 7.24444 1.94114 11
      vertex 5.16831 1.88111 11
      vertex 5.5 0 11
    endloop
  endfacet
  facet normal 0 0 1
    outer loop
      vertex 6.49519 3.75 11
      vertex 4.21324 3.53533 11
      vertex 5.16831 1.88111 11
    endloop
  endfacet
  facet normal 0 0 1
    outer loop
      vertex 2.75 4.76314 11
      vertex 5.3033 5.3033 11
      vertex 3.75 6.49519 11
    endloop
  endfacet
  facet normal 0 0 1
    outer loop
      vertex 5.3033 5.3033 11
      vertex 2.75 4.76314 11
      vertex 4.21324 3.53533 11
    endloop
  endfacet
  facet normal 0 0 1
    outer loop
      vertex 1.94114 7.24444 11
      vertex 2.75 4.76314 11
      vertex 3.75 6.49519 11
    endloop
  endfacet
  facet normal 0 0 1
    outer loop
      vertex 1.94114 7.24444 11
      vertex 0.955065 5.41644 11
      vertex 2.75 4.76314 11
    endloop
  endfacet
  facet normal 0 0 1
    outer loop
      vertex 0 7.5 11
      vertex 0.955065 5.41644 11
      vertex 1.94114 7.24444 11
    endloop
  endfacet
  facet normal 0 0 1
    outer loop
      vertex 0 7.5 11
      vertex -0.955065 5.41644 11
      vertex 0.955065 5.41644 11
    endloop
  endfacet
  facet normal -0 0 1
    outer loop
      vertex -1.94114 7.24444 11
      vertex -0.955065 5.41644 11
      vertex 0 7.5 11
    endloop
  endfacet
  facet normal 0 0 1
    outer loop
      vertex -1.94114 7.24444 11
      vertex -2.75 4.76314 11
      vertex -0.955065 5.41644 11
    endloop
  endfacet
  facet normal -0 0 1
    outer loop
      vertex -3.75 6.49519 11
      vertex -2.75 4.76314 11
      vertex -1.94114 7.24444 11
    endloop
  endfacet
  facet normal -0 0 1
    outer loop
      vertex -5.3033 5.3033 11
      vertex -2.75 4.76314 11
      vertex -3.75 6.49519 11
    endloop
  endfacet
  facet normal 0 0 1
    outer loop
      vertex -2.75 4.76314 11
      vertex -5.3033 5.3033 11
      vertex -4.21324 3.53533 11
    endloop
  endfacet
  facet normal -0 0 1
    outer loop
      vertex -6.49519 3.75 11
      vertex -4.21324 3.53533 11
      vertex -5.3033 5.3033 11
    endloop
  endfacet
  facet normal 0 0 1
    outer loop
      vertex -4.21324 3.53533 11
      vertex -6.49519 3.75 11
      vertex -5.16831 1.88111 11
    endloop
  endfacet
  facet normal -0 0 1
    outer loop
      vertex -7.24444 1.94114 11
      vertex -5.16831 1.88111 11
      vertex -6.49519 3.75 11
    endloop
  endfacet
  facet normal 0 0 1
    outer loop
      vertex 7.24444 -1.94114 11
      vertex 5.16831 -1.88111 11
      vertex 6.49519 -3.75 11
    endloop
  endfacet
  facet normal -0 0 1
    outer loop
      vertex 4.21324 -3.53533 11
      vertex 6.49519 -3.75 11
      vertex 5.16831 -1.88111 11
    endloop
  endfacet
  facet normal 0 0 1
    outer loop
      vertex 6.49519 -3.75 11
      vertex 4.21324 -3.53533 11
      vertex 5.3033 -5.3033 11
    endloop
  endfacet
  facet normal -0 0 1
    outer loop
      vertex 2.75 -4.76314 11
      vertex 5.3033 -5.3033 11
      vertex 4.21324 -3.53533 11
    endloop
  endfacet
  facet normal 0 0 1
    outer loop
      vertex 5.3033 -5.3033 11
      vertex 2.75 -4.76314 11
      vertex 3.75 -6.49519 11
    endloop
  endfacet
  facet normal 0 0 1
    outer loop
      vertex 2.75 -4.76314 11
      vertex 1.94114 -7.24444 11
      vertex 3.75 -6.49519 11
    endloop
  endfacet
  facet normal -0 0 1
    outer loop
      vertex 0.955065 -5.41644 11
      vertex 1.94114 -7.24444 11
      vertex 2.75 -4.76314 11
    endloop
  endfacet
  facet normal 0 0 1
    outer loop
      vertex 0.955065 -5.41644 11
      vertex 0 -7.5 11
      vertex 1.94114 -7.24444 11
    endloop
  endfacet
  facet normal -0 0 1
    outer loop
      vertex -0.955065 -5.41644 11
      vertex 0 -7.5 11
      vertex 0.955065 -5.41644 11
    endloop
  endfacet
  facet normal 0 0 1
    outer loop
      vertex -0.955065 -5.41644 11
      vertex -1.94114 -7.24444 11
      vertex 0 -7.5 11
    endloop
  endfacet
  facet normal 0 0 1
    outer loop
      vertex -2.75 -4.76314 11
      vertex -1.94114 -7.24444 11
      vertex -0.955065 -5.41644 11
    endloop
  endfacet
  facet normal 0 0 1
    outer loop
      vertex -2.75 -4.76314 11
      vertex -3.75 -6.49519 11
      vertex -1.94114 -7.24444 11
    endloop
  endfacet
  facet normal 0 0 1
    outer loop
      vertex -5.3033 -5.3033 11
      vertex -2.75 -4.76314 11
      vertex -4.21324 -3.53533 11
    endloop
  endfacet
  facet normal 0 0 1
    outer loop
      vertex -6.49519 -3.75 11
      vertex -4.21324 -3.53533 11
      vertex -5.16831 -1.88111 11
    endloop
  endfacet
  facet normal 0 0 1
    outer loop
      vertex -2.75 -4.76314 11
      vertex -5.3033 -5.3033 11
      vertex -3.75 -6.49519 11
    endloop
  endfacet
  facet normal 0 0 1
    outer loop
      vertex -7.24444 -1.94114 11
      vertex -5.16831 -1.88111 11
      vertex -5.5 0 11
    endloop
  endfacet
  facet normal 0 0 1
    outer loop
      vertex -5.16831 1.88111 11
      vertex -7.24444 1.94114 11
      vertex -5.5 0 11
    endloop
  endfacet
  facet normal 0 0 1
    outer loop
      vertex -4.21324 -3.53533 11
      vertex -6.49519 -3.75 11
      vertex -5.3033 -5.3033 11
    endloop
  endfacet
  facet normal 0 0 1
    outer loop
      vertex -7.5 0 11
      vertex -5.5 0 11
      vertex -7.24444 1.94114 11
    endloop
  endfacet
  facet normal 0 0 1
    outer loop
      vertex -5.16831 -1.88111 11
      vertex -7.24444 -1.94114 11
      vertex -6.49519 -3.75 11
    endloop
  endfacet
  facet normal 0 0 1
    outer loop
      vertex -5.5 0 11
      vertex -7.5 0 11
      vertex -7.24444 -1.94114 11
    endloop
  endfacet
  facet normal -0.130527 0.991445 0
    outer loop
      vertex 0 7.5 0
      vertex -1.94114 7.24444 11
      vertex 0 7.5 11
    endloop
  endfacet
  facet normal -0.130527 0.991445 0
    outer loop
      vertex -1.94114 7.24444 11
      vertex 0 7.5 0
      vertex -1.94114 7.24444 0
    endloop
  endfacet
  facet normal -0.608761 -0.793354 0
    outer loop
      vertex -5.3033 -5.3033 0
      vertex -3.75 -6.49519 11
      vertex -5.3033 -5.3033 11
    endloop
  endfacet
  facet normal -0.608761 -0.793354 -0
    outer loop
      vertex -3.75 -6.49519 11
      vertex -5.3033 -5.3033 0
      vertex -3.75 -6.49519 0
    endloop
  endfacet
  facet normal -0.991445 -0.130527 0
    outer loop
      vertex -7.24444 -1.94114 0
      vertex -7.5 0 11
      vertex -7.5 0 0
    endloop
  endfacet
  facet normal -0.991445 -0.130527 0
    outer loop
      vertex -7.5 0 11
      vertex -7.24444 -1.94114 0
      vertex -7.24444 -1.94114 11
    endloop
  endfacet
  facet normal 0.382683 0.92388 -0
    outer loop
      vertex 3.75 6.49519 0
      vertex 1.94114 7.24444 11
      vertex 3.75 6.49519 11
    endloop
  endfacet
  facet normal 0.382683 0.92388 0
    outer loop
      vertex 1.94114 7.24444 11
      vertex 3.75 6.49519 0
      vertex 1.94114 7.24444 0
    endloop
  endfacet
  facet normal -0.793354 0.608761 0
    outer loop
      vertex -6.49519 3.75 0
      vertex -5.3033 5.3033 11
      vertex -5.3033 5.3033 0
    endloop
  endfacet
  facet normal -0.793354 0.608761 0
    outer loop
      vertex -5.3033 5.3033 11
      vertex -6.49519 3.75 0
      vertex -6.49519 3.75 11
    endloop
  endfacet
  facet normal -0.923879 0.382684 0
    outer loop
      vertex -7.24444 1.94114 0
      vertex -6.49519 3.75 11
      vertex -6.49519 3.75 0
    endloop
  endfacet
  facet normal -0.923879 0.382684 0
    outer loop
      vertex -6.49519 3.75 11
      vertex -7.24444 1.94114 0
      vertex -7.24444 1.94114 11
    endloop
  endfacet
  facet normal -0.382684 0.923879 0
    outer loop
      vertex -1.94114 7.24444 0
      vertex -3.75 6.49519 11
      vertex -1.94114 7.24444 11
    endloop
  endfacet
  facet normal -0.382684 0.923879 0
    outer loop
      vertex -3.75 6.49519 11
      vertex -1.94114 7.24444 0
      vertex -3.75 6.49519 0
    endloop
  endfacet
  facet normal 0.991445 -0.130527 0
    outer loop
      vertex 7.24444 -1.94114 11
      vertex 7.5 0 0
      vertex 7.5 0 11
    endloop
  endfacet
  facet normal 0.991445 -0.130527 0
    outer loop
      vertex 7.5 0 0
      vertex 7.24444 -1.94114 11
      vertex 7.24444 -1.94114 0
    endloop
  endfacet
  facet normal 0.130527 -0.991445 0
    outer loop
      vertex 0 -7.5 0
      vertex 1.94114 -7.24444 11
      vertex 0 -7.5 11
    endloop
  endfacet
  facet normal 0.130527 -0.991445 0
    outer loop
      vertex 1.94114 -7.24444 11
      vertex 0 -7.5 0
      vertex 1.94114 -7.24444 0
    endloop
  endfacet
  facet normal 0.608761 -0.793354 0
    outer loop
      vertex 3.75 -6.49519 0
      vertex 5.3033 -5.3033 11
      vertex 3.75 -6.49519 11
    endloop
  endfacet
  facet normal 0.608761 -0.793354 0
    outer loop
      vertex 5.3033 -5.3033 11
      vertex 3.75 -6.49519 0
      vertex 5.3033 -5.3033 0
    endloop
  endfacet
  facet normal -0.382683 -0.92388 0
    outer loop
      vertex -3.75 -6.49519 0
      vertex -1.94114 -7.24444 11
      vertex -3.75 -6.49519 11
    endloop
  endfacet
  facet normal -0.382683 -0.92388 -0
    outer loop
      vertex -1.94114 -7.24444 11
      vertex -3.75 -6.49519 0
      vertex -1.94114 -7.24444 0
    endloop
  endfacet
  facet normal -0.923879 -0.382684 0
    outer loop
      vertex -6.49519 -3.75 0
      vertex -7.24444 -1.94114 11
      vertex -7.24444 -1.94114 0
    endloop
  endfacet
  facet normal -0.923879 -0.382684 0
    outer loop
      vertex -7.24444 -1.94114 11
      vertex -6.49519 -3.75 0
      vertex -6.49519 -3.75 11
    endloop
  endfacet
  facet normal 0.382683 -0.92388 0
    outer loop
      vertex 1.94114 -7.24444 0
      vertex 3.75 -6.49519 11
      vertex 1.94114 -7.24444 11
    endloop
  endfacet
  facet normal 0.382683 -0.92388 0
    outer loop
      vertex 3.75 -6.49519 11
      vertex 1.94114 -7.24444 0
      vertex 3.75 -6.49519 0
    endloop
  endfacet
  facet normal 0.92388 -0.382683 0
    outer loop
      vertex 6.49519 -3.75 11
      vertex 7.24444 -1.94114 0
      vertex 7.24444 -1.94114 11
    endloop
  endfacet
  facet normal 0.92388 -0.382683 0
    outer loop
      vertex 7.24444 -1.94114 0
      vertex 6.49519 -3.75 11
      vertex 6.49519 -3.75 0
    endloop
  endfacet
  facet normal 0.793354 -0.608761 0
    outer loop
      vertex 5.3033 -5.3033 11
      vertex 6.49519 -3.75 0
      vertex 6.49519 -3.75 11
    endloop
  endfacet
  facet normal 0.793354 -0.608761 0
    outer loop
      vertex 6.49519 -3.75 0
      vertex 5.3033 -5.3033 11
      vertex 5.3033 -5.3033 0
    endloop
  endfacet
  facet normal -0.984808 -0.173648 0
    outer loop
      vertex 5.5 0 5
      vertex 5.16831 1.88111 11
      vertex 5.16831 1.88111 5
    endloop
  endfacet
  facet normal -0.984808 -0.173648 0
    outer loop
      vertex 5.16831 1.88111 11
      vertex 5.5 0 5
      vertex 5.5 0 11
    endloop
  endfacet
  facet normal 0.984808 -0.173648 0
    outer loop
      vertex -5.5 0 11
      vertex -5.16831 1.88111 5
      vertex -5.16831 1.88111 11
    endloop
  endfacet
  facet normal 0.984808 -0.173648 0
    outer loop
      vertex -5.16831 1.88111 5
      vertex -5.5 0 11
      vertex -5.5 0 5
    endloop
  endfacet
  facet normal 0 -1 0
    outer loop
      vertex -0.955065 5.41644 5
      vertex 0.955065 5.41644 11
      vertex -0.955065 5.41644 11
    endloop
  endfacet
  facet normal 0 -1 -0
    outer loop
      vertex 0.955065 5.41644 11
      vertex -0.955065 5.41644 5
      vertex 0.955065 5.41644 5
    endloop
  endfacet
  facet normal 0 1 -0
    outer loop
      vertex 0.955065 -5.41644 5
      vertex -0.955065 -5.41644 11
      vertex 0.955065 -5.41644 11
    endloop
  endfacet
  facet normal 0 1 0
    outer loop
      vertex -0.955065 -5.41644 11
      vertex 0.955065 -5.41644 5
      vertex -0.955065 -5.41644 5
    endloop
  endfacet
  facet normal -0.642788 -0.766044 0
    outer loop
      vertex 2.75 4.76314 5
      vertex 4.21324 3.53533 11
      vertex 2.75 4.76314 11
    endloop
  endfacet
  facet normal -0.642788 -0.766044 -0
    outer loop
      vertex 4.21324 3.53533 11
      vertex 2.75 4.76314 5
      vertex 4.21324 3.53533 5
    endloop
  endfacet
  facet normal -0.866025 -0.5 0
    outer loop
      vertex 5.16831 1.88111 5
      vertex 4.21324 3.53533 11
      vertex 4.21324 3.53533 5
    endloop
  endfacet
  facet normal -0.866025 -0.5 0
    outer loop
      vertex 4.21324 3.53533 11
      vertex 5.16831 1.88111 5
      vertex 5.16831 1.88111 11
    endloop
  endfacet
  facet normal -0.34202 -0.939693 0
    outer loop
      vertex 0.955065 5.41644 5
      vertex 2.75 4.76314 11
      vertex 0.955065 5.41644 11
    endloop
  endfacet
  facet normal -0.34202 -0.939693 -0
    outer loop
      vertex 2.75 4.76314 11
      vertex 0.955065 5.41644 5
      vertex 2.75 4.76314 5
    endloop
  endfacet
  facet normal 0.642787 -0.766045 0
    outer loop
      vertex -4.21324 3.53533 5
      vertex -2.75 4.76314 11
      vertex -4.21324 3.53533 11
    endloop
  endfacet
  facet normal 0.642787 -0.766045 0
    outer loop
      vertex -2.75 4.76314 11
      vertex -4.21324 3.53533 5
      vertex -2.75 4.76314 5
    endloop
  endfacet
  facet normal 0.866025 -0.5 0
    outer loop
      vertex -5.16831 1.88111 11
      vertex -4.21324 3.53533 5
      vertex -4.21324 3.53533 11
    endloop
  endfacet
  facet normal 0.866025 -0.5 0
    outer loop
      vertex -4.21324 3.53533 5
      vertex -5.16831 1.88111 11
      vertex -5.16831 1.88111 5
    endloop
  endfacet
  facet normal 0.34202 -0.939693 0
    outer loop
      vertex -2.75 4.76314 5
      vertex -0.955065 5.41644 11
      vertex -2.75 4.76314 11
    endloop
  endfacet
  facet normal 0.34202 -0.939693 0
    outer loop
      vertex -0.955065 5.41644 11
      vertex -2.75 4.76314 5
      vertex -0.955065 5.41644 5
    endloop
  endfacet
  facet normal 0 0 1
    outer loop
      vertex 5.16831 1.88111 5
      vertex 5.16831 -1.88111 5
      vertex 5.5 0 5
    endloop
  endfacet
  facet normal 0 0 1
    outer loop
      vertex 4.21324 3.53533 5
      vertex 5.16831 -1.88111 5
      vertex 5.16831 1.88111 5
    endloop
  endfacet
  facet normal 0 0 1
    outer loop
      vertex 4.21324 3.53533 5
      vertex 4.21324 -3.53533 5
      vertex 5.16831 -1.88111 5
    endloop
  endfacet
  facet normal 0 0 1
    outer loop
      vertex 2.75 4.76314 5
      vertex 4.21324 -3.53533 5
      vertex 4.21324 3.53533 5
    endloop
  endfacet
  facet normal 0 0 1
    outer loop
      vertex 2.75 4.76314 5
      vertex 2.75 -4.76314 5
      vertex 4.21324 -3.53533 5
    endloop
  endfacet
  facet normal 0 0 1
    outer loop
      vertex 0.955065 5.41644 5
      vertex 2.75 -4.76314 5
      vertex 2.75 4.76314 5
    endloop
  endfacet
  facet normal 0 0 1
    outer loop
      vertex 0.955065 5.41644 5
      vertex 0.955065 -5.41644 5
      vertex 2.75 -4.76314 5
    endloop
  endfacet
  facet normal -0 0 1
    outer loop
      vertex -0.955065 5.41644 5
      vertex 0.955065 -5.41644 5
      vertex 0.955065 5.41644 5
    endloop
  endfacet
  facet normal 0 0 1
    outer loop
      vertex -0.955065 5.41644 5
      vertex -0.955065 -5.41644 5
      vertex 0.955065 -5.41644 5
    endloop
  endfacet
  facet normal -0 0 1
    outer loop
      vertex -2.75 4.76314 5
      vertex -0.955065 -5.41644 5
      vertex -0.955065 5.41644 5
    endloop
  endfacet
  facet normal 0 0 1
    outer loop
      vertex -2.75 4.76314 5
      vertex -2.75 -4.76314 5
      vertex -0.955065 -5.41644 5
    endloop
  endfacet
  facet normal -0 0 1
    outer loop
      vertex -4.21324 3.53533 5
      vertex -2.75 -4.76314 5
      vertex -2.75 4.76314 5
    endloop
  endfacet
  facet normal 0 0 1
    outer loop
      vertex -4.21324 3.53533 5
      vertex -4.21324 -3.53533 5
      vertex -2.75 -4.76314 5
    endloop
  endfacet
  facet normal -0 0 1
    outer loop
      vertex -5.16831 1.88111 5
      vertex -4.21324 -3.53533 5
      vertex -4.21324 3.53533 5
    endloop
  endfacet
  facet normal 0 0 1
    outer loop
      vertex -5.16831 1.88111 5
      vertex -5.16831 -1.88111 5
      vertex -4.21324 -3.53533 5
    endloop
  endfacet
  facet normal 0 -0 1
    outer loop
      vertex -5.16831 -1.88111 5
      vertex -5.16831 1.88111 5
      vertex -5.5 0 5
    endloop
  endfacet
  facet normal -0.866025 0.5 0
    outer loop
      vertex 4.21324 -3.53533 5
      vertex 5.16831 -1.88111 11
      vertex 5.16831 -1.88111 5
    endloop
  endfacet
  facet normal -0.866025 0.5 0
    outer loop
      vertex 5.16831 -1.88111 11
      vertex 4.21324 -3.53533 5
      vertex 4.21324 -3.53533 11
    endloop
  endfacet
  facet normal -0.984808 0.173648 0
    outer loop
      vertex 5.16831 -1.88111 5
      vertex 5.5 0 11
      vertex 5.5 0 5
    endloop
  endfacet
  facet normal -0.984808 0.173648 0
    outer loop
      vertex 5.5 0 11
      vertex 5.16831 -1.88111 5
      vertex 5.16831 -1.88111 11
    endloop
  endfacet
  facet normal 0.34202 0.939693 -0
    outer loop
      vertex -0.955065 -5.41644 5
      vertex -2.75 -4.76314 11
      vertex -0.955065 -5.41644 11
    endloop
  endfacet
  facet normal 0.34202 0.939693 0
    outer loop
      vertex -2.75 -4.76314 11
      vertex -0.955065 -5.41644 5
      vertex -2.75 -4.76314 5
    endloop
  endfacet
  facet normal 0.866025 0.5 0
    outer loop
      vertex -4.21324 -3.53533 11
      vertex -5.16831 -1.88111 5
      vertex -5.16831 -1.88111 11
    endloop
  endfacet
  facet normal 0.866025 0.5 0
    outer loop
      vertex -5.16831 -1.88111 5
      vertex -4.21324 -3.53533 11
      vertex -4.21324 -3.53533 5
    endloop
  endfacet
  facet normal 0.984808 0.173648 0
    outer loop
      vertex -5.16831 -1.88111 11
      vertex -5.5 0 5
      vertex -5.5 0 11
    endloop
  endfacet
  facet normal 0.984808 0.173648 0
    outer loop
      vertex -5.5 0 5
      vertex -5.16831 -1.88111 11
      vertex -5.16831 -1.88111 5
    endloop
  endfacet
  facet normal -0.642787 0.766045 0
    outer loop
      vertex 4.21324 -3.53533 5
      vertex 2.75 -4.76314 11
      vertex 4.21324 -3.53533 11
    endloop
  endfacet
  facet normal -0.642787 0.766045 0
    outer loop
      vertex 2.75 -4.76314 11
      vertex 4.21324 -3.53533 5
      vertex 2.75 -4.76314 5
    endloop
  endfacet
  facet normal -0.34202 0.939693 0
    outer loop
      vertex 2.75 -4.76314 5
      vertex 0.955065 -5.41644 11
      vertex 2.75 -4.76314 11
    endloop
  endfacet
  facet normal -0.34202 0.939693 0
    outer loop
      vertex 0.955065 -5.41644 11
      vertex 2.75 -4.76314 5
      vertex 0.955065 -5.41644 5
    endloop
  endfacet
  facet normal 0.642788 0.766044 -0
    outer loop
      vertex -2.75 -4.76314 5
      vertex -4.21324 -3.53533 11
      vertex -2.75 -4.76314 11
    endloop
  endfacet
  facet normal 0.642788 0.766044 0
    outer loop
      vertex -4.21324 -3.53533 11
      vertex -2.75 -4.76314 5
      vertex -4.21324 -3.53533 5
    endloop
  endfacet
endsolid OpenSCAD_Model
