solid OpenSCAD_Model
  facet normal -1 0 0
    outer loop
      vertex 0 0 0
      vertex 0 10 7
      vertex 0 10 0
    endloop
  endfacet
  facet normal -1 -0 0
    outer loop
      vertex 0 10 7
      vertex 0 0 0
      vertex 0 0 7
    endloop
  endfacet
  facet normal -0 0 1
    outer loop
      vertex 0 10 7
      vertex 12 0 7
      vertex 12 10 7
    endloop
  endfacet
  facet normal 0 0 1
    outer loop
      vertex 12 0 7
      vertex 0 10 7
      vertex 0 0 7
    endloop
  endfacet
  facet normal 1 -0 0
    outer loop
      vertex 12 0 7
      vertex 12 10 0
      vertex 12 10 7
    endloop
  endfacet
  facet normal 1 0 0
    outer loop
      vertex 12 10 0
      vertex 12 0 7
      vertex 12 0 0
    endloop
  endfacet
  facet normal 0 1 0
    outer loop
      vertex 12 10 7
      vertex 6.48215 10 3.97083
      vertex 0 10 7
    endloop
  endfacet
  facet normal 0 1 0
    outer loop
      vertex 12 10 7
      vertex 8.27226 10 3.29193
      vertex 6.48215 10 3.97083
    endloop
  endfacet
  facet normal 0 1 0
    outer loop
      vertex 12 10 7
      vertex 9.54182 10 1.85889
      vertex 8.27226 10 3.29193
    endloop
  endfacet
  facet normal 0 1 -0
    outer loop
      vertex 12 10 0
      vertex 9.54182 10 1.85889
      vertex 12 10 7
    endloop
  endfacet
  facet normal 0 1 0
    outer loop
      vertex 9.54182 10 1.85889
      vertex 12 10 0
      vertex 10 10 0
    endloop
  endfacet
  facet normal 0 1 -0
    outer loop
      vertex 4.58158 10 3.74006
      vertex 0 10 7
      vertex 6.48215 10 3.97083
    endloop
  endfacet
  facet normal 0 1 -0
    outer loop
      vertex 3.00596 10 2.65249
      vertex 0 10 7
      vertex 4.58158 10 3.74006
    endloop
  endfacet
  facet normal 0 1 0
    outer loop
      vertex 0 10 0
      vertex 3.00596 10 2.65249
      vertex 2.11623 10 0.957262
    endloop
  endfacet
  facet normal 0 1 0
    outer loop
      vertex 0 10 0
      vertex 2.11623 10 0.957262
      vertex 2.11623 10 0
    endloop
  endfacet
  facet normal 0 1 0
    outer loop
      vertex 3.00596 10 2.65249
      vertex 0 10 0
      vertex 0 10 7
    endloop
  endfacet
  facet normal 0 0 -1
    outer loop
      vertex 0 0 0
      vertex 2.11623 10 0
      vertex 2.11623 0 0
    endloop
  endfacet
  facet normal -0 0 -1
    outer loop
      vertex 2.11623 10 0
      vertex 0 0 0
      vertex 0 10 0
    endloop
  endfacet
  facet normal 0 0 -1
    outer loop
      vertex 10 0 0
      vertex 12 10 0
      vertex 12 0 0
    endloop
  endfacet
  facet normal -0 0 -1
    outer loop
      vertex 12 10 0
      vertex 10 0 0
      vertex 10 10 0
    endloop
  endfacet
  facet normal 0 -1 0
    outer loop
      vertex 0 0 7
      vertex 6.48215 0 3.97083
      vertex 12 0 7
    endloop
  endfacet
  facet normal 0 -1 0
    outer loop
      vertex 0 0 7
      vertex 4.58158 0 3.74006
      vertex 6.48215 0 3.97083
    endloop
  endfacet
  facet normal 0 -1 0
    outer loop
      vertex 0 0 7
      vertex 3.00596 0 2.65249
      vertex 4.58158 0 3.74006
    endloop
  endfacet
  facet normal 0 -1 0
    outer loop
      vertex 0 0 0
      vertex 3.00596 0 2.65249
      vertex 0 0 7
    endloop
  endfacet
  facet normal 0 -1 0
    outer loop
      vertex 3.00596 0 2.65249
      vertex 0 0 0
      vertex 2.11623 0 0.957262
    endloop
  endfacet
  facet normal 0 -1 -0
    outer loop
      vertex 2.11623 0 0.957262
      vertex 0 0 0
      vertex 2.11623 0 0
    endloop
  endfacet
  facet normal 0 -1 0
    outer loop
      vertex 8.27226 0 3.29193
      vertex 12 0 7
      vertex 6.48215 0 3.97083
    endloop
  endfacet
  facet normal 0 -1 0
    outer loop
      vertex 9.54182 0 1.85889
      vertex 12 0 7
      vertex 8.27226 0 3.29193
    endloop
  endfacet
  facet normal 0 -1 0
    outer loop
      vertex 12 0 0
      vertex 9.54182 0 1.85889
      vertex 10 0 0
    endloop
  endfacet
  facet normal 0 -1 0
    outer loop
      vertex 9.54182 0 1.85889
      vertex 12 0 0
      vertex 12 0 7
    endloop
  endfacet
  facet normal -0.354605 0 -0.935016
    outer loop
      vertex 6.48215 0 3.97083
      vertex 8.27226 10 3.29193
      vertex 8.27226 0 3.29193
    endloop
  endfacet
  facet normal -0.354605 0 -0.935016
    outer loop
      vertex 8.27226 10 3.29193
      vertex 6.48215 0 3.97083
      vertex 6.48215 10 3.97083
    endloop
  endfacet
  facet normal -0.970942 0 -0.239316
    outer loop
      vertex 10 0 0
      vertex 9.54182 10 1.85889
      vertex 10 10 0
    endloop
  endfacet
  facet normal -0.970942 -0 -0.239316
    outer loop
      vertex 9.54182 10 1.85889
      vertex 10 0 0
      vertex 9.54182 0 1.85889
    endloop
  endfacet
  facet normal -0.748511 0 -0.663123
    outer loop
      vertex 9.54182 0 1.85889
      vertex 8.27226 10 3.29193
      vertex 9.54182 10 1.85889
    endloop
  endfacet
  facet normal -0.748511 -0 -0.663123
    outer loop
      vertex 8.27226 10 3.29193
      vertex 9.54182 0 1.85889
      vertex 8.27226 0 3.29193
    endloop
  endfacet
  facet normal 1 -0 0
    outer loop
      vertex 2.11623 0 0.957262
      vertex 2.11623 10 0
      vertex 2.11623 10 0.957262
    endloop
  endfacet
  facet normal 1 0 0
    outer loop
      vertex 2.11623 10 0
      vertex 2.11623 0 0.957262
      vertex 2.11623 0 0
    endloop
  endfacet
  facet normal 0.120536 0 -0.992709
    outer loop
      vertex 4.58158 0 3.74006
      vertex 6.48215 10 3.97083
      vertex 6.48215 0 3.97083
    endloop
  endfacet
  facet normal 0.120536 0 -0.992709
    outer loop
      vertex 6.48215 10 3.97083
      vertex 4.58158 0 3.74006
      vertex 4.58158 10 3.74006
    endloop
  endfacet
  facet normal 0.568065 0 -0.822984
    outer loop
      vertex 3.00596 0 2.65249
      vertex 4.58158 10 3.74006
      vertex 4.58158 0 3.74006
    endloop
  endfacet
  facet normal 0.568065 0 -0.822984
    outer loop
      vertex 4.58158 10 3.74006
      vertex 3.00596 0 2.65249
      vertex 3.00596 10 2.65249
    endloop
  endfacet
  facet normal 0.885456 0 -0.464723
    outer loop
      vertex 3.00596 0 2.65249
      vertex 2.11623 10 0.957262
      vertex 3.00596 10 2.65249
    endloop
  endfacet
  facet normal 0.885456 0 -0.464723
    outer loop
      vertex 2.11623 10 0.957262
      vertex 3.00596 0 2.65249
      vertex 2.11623 0 0.957262
    endloop
  endfacet
endsolid OpenSCAD_Model
