solid OpenSCAD_Model
  facet normal -0.980785 -0.195091 0
    outer loop
      vertex 5 0 0
      vertex 4.6194 1.91342 5
      vertex 4.6194 1.91342 0
    endloop
  endfacet
  facet normal -0.980785 -0.195091 0
    outer loop
      vertex 4.6194 1.91342 5
      vertex 5 0 0
      vertex 5 0 5
    endloop
  endfacet
  facet normal 0.980785 -0.195091 0
    outer loop
      vertex -5 0 5
      vertex -4.6194 1.91342 0
      vertex -4.6194 1.91342 5
    endloop
  endfacet
  facet normal 0.980785 -0.195091 0
    outer loop
      vertex -4.6194 1.91342 0
      vertex -5 0 5
      vertex -5 0 0
    endloop
  endfacet
  facet normal -0.195091 -0.980785 0
    outer loop
      vertex 0 5 0
      vertex 1.91342 4.6194 5
      vertex 0 5 5
    endloop
  endfacet
  facet normal -0.195091 -0.980785 -0
    outer loop
      vertex 1.91342 4.6194 5
      vertex 0 5 0
      vertex 1.91342 4.6194 0
    endloop
  endfacet
  facet normal -0.83147 -0.55557 0
    outer loop
      vertex 4.6194 1.91342 0
      vertex 3.53553 3.53553 5
      vertex 3.53553 3.53553 0
    endloop
  endfacet
  facet normal -0.83147 -0.55557 0
    outer loop
      vertex 3.53553 3.53553 5
      vertex 4.6194 1.91342 0
      vertex 4.6194 1.91342 5
    endloop
  endfacet
  facet normal 0.195091 0.980785 -0
    outer loop
      vertex 0 -5 0
      vertex -1.91342 -4.6194 5
      vertex 0 -5 5
    endloop
  endfacet
  facet normal 0.195091 0.980785 0
    outer loop
      vertex -1.91342 -4.6194 5
      vertex 0 -5 0
      vertex -1.91342 -4.6194 0
    endloop
  endfacet
  facet normal 0 0 -1
    outer loop
      vertex 5 0 0
      vertex 6 0 0
      vertex 5.6749 -1.9482 0
    endloop
  endfacet
  facet normal 0 0 -1
    outer loop
      vertex 6 0 0
      vertex 5 0 0
      vertex 5.6749 1.9482 0
    endloop
  endfacet
  facet normal 0 0 -1
    outer loop
      vertex 4.6194 -1.91342 0
      vertex 5.6749 -1.9482 0
      vertex 4.73484 -3.68528 0
    endloop
  endfacet
  facet normal 0 0 -1
    outer loop
      vertex 5.6749 -1.9482 0
      vertex 4.6194 -1.91342 0
      vertex 5 0 0
    endloop
  endfacet
  facet normal 0 0 -1
    outer loop
      vertex 4.73484 -3.68528 0
      vertex 3.53553 -3.53553 0
      vertex 4.6194 -1.91342 0
    endloop
  endfacet
  facet normal 0 0 -1
    outer loop
      vertex 3.28169 -5.023 0
      vertex 3.53553 -3.53553 0
      vertex 4.73484 -3.68528 0
    endloop
  endfacet
  facet normal 0 0 -1
    outer loop
      vertex 3.28169 -5.023 0
      vertex 1.91342 -4.6194 0
      vertex 3.53553 -3.53553 0
    endloop
  endfacet
  facet normal 0 0 -1
    outer loop
      vertex 1.47291 -5.8164 0
      vertex 1.91342 -4.6194 0
      vertex 3.28169 -5.023 0
    endloop
  endfacet
  facet normal 0 0 -1
    outer loop
      vertex 1.47291 -5.8164 0
      vertex 0 -5 0
      vertex 1.91342 -4.6194 0
    endloop
  endfacet
  facet normal 0 0 -1
    outer loop
      vertex -0.495476 -5.97951 0
      vertex 0 -5 0
      vertex 1.47291 -5.8164 0
    endloop
  endfacet
  facet normal 0 0 -1
    outer loop
      vertex -0.495476 -5.97951 0
      vertex -1.91342 -4.6194 0
      vertex 0 -5 0
    endloop
  endfacet
  facet normal 0 0 -1
    outer loop
      vertex -2.41017 -5.49464 0
      vertex -1.91342 -4.6194 0
      vertex -0.495476 -5.97951 0
    endloop
  endfacet
  facet normal 0 0 -1
    outer loop
      vertex -4.06369 -4.41434 0
      vertex -1.91342 -4.6194 0
      vertex -2.41017 -5.49464 0
    endloop
  endfacet
  facet normal 0 0 -1
    outer loop
      vertex -1.91342 -4.6194 0
      vertex -4.06369 -4.41434 0
      vertex -3.53553 -3.53553 0
    endloop
  endfacet
  facet normal 0 0 -1
    outer loop
      vertex -5.27684 -2.85568 0
      vertex -3.53553 -3.53553 0
      vertex -4.06369 -4.41434 0
    endloop
  endfacet
  facet normal 0 0 -1
    outer loop
      vertex -5.91817 -0.987567 0
      vertex -4.6194 -1.91342 0
      vertex -5.27684 -2.85568 0
    endloop
  endfacet
  facet normal 0 0 -1
    outer loop
      vertex -3.53553 -3.53553 0
      vertex -5.27684 -2.85568 0
      vertex -4.6194 -1.91342 0
    endloop
  endfacet
  facet normal 0 0 -1
    outer loop
      vertex 4.6194 1.91342 0
      vertex 5.6749 1.9482 0
      vertex 5 0 0
    endloop
  endfacet
  facet normal -0 0 -1
    outer loop
      vertex 5.6749 1.9482 0
      vertex 4.6194 1.91342 0
      vertex 4.73484 3.68528 0
    endloop
  endfacet
  facet normal 0 0 -1
    outer loop
      vertex 3.53553 3.53553 0
      vertex 4.73484 3.68528 0
      vertex 4.6194 1.91342 0
    endloop
  endfacet
  facet normal 0 0 -1
    outer loop
      vertex 3.53553 3.53553 0
      vertex 3.28169 5.023 0
      vertex 4.73484 3.68528 0
    endloop
  endfacet
  facet normal 0 0 -1
    outer loop
      vertex 1.91342 4.6194 0
      vertex 3.28169 5.023 0
      vertex 3.53553 3.53553 0
    endloop
  endfacet
  facet normal 0 0 -1
    outer loop
      vertex 1.91342 4.6194 0
      vertex 1.47291 5.8164 0
      vertex 3.28169 5.023 0
    endloop
  endfacet
  facet normal 0 0 -1
    outer loop
      vertex 0 5 0
      vertex 1.47291 5.8164 0
      vertex 1.91342 4.6194 0
    endloop
  endfacet
  facet normal 0 0 -1
    outer loop
      vertex 0 5 0
      vertex -0.495476 5.97951 0
      vertex 1.47291 5.8164 0
    endloop
  endfacet
  facet normal 0 0 -1
    outer loop
      vertex -1.91342 4.6194 0
      vertex -0.495476 5.97951 0
      vertex 0 5 0
    endloop
  endfacet
  facet normal 0 0 -1
    outer loop
      vertex -1.91342 4.6194 0
      vertex -2.41017 5.49464 0
      vertex -0.495476 5.97951 0
    endloop
  endfacet
  facet normal 0 0 -1
    outer loop
      vertex -4.06369 4.41434 0
      vertex -1.91342 4.6194 0
      vertex -3.53553 3.53553 0
    endloop
  endfacet
  facet normal -0 0 -1
    outer loop
      vertex -1.91342 4.6194 0
      vertex -4.06369 4.41434 0
      vertex -2.41017 5.49464 0
    endloop
  endfacet
  facet normal 0 0 -1
    outer loop
      vertex -5.27684 2.85568 0
      vertex -3.53553 3.53553 0
      vertex -4.6194 1.91342 0
    endloop
  endfacet
  facet normal -0 0 -1
    outer loop
      vertex -3.53553 3.53553 0
      vertex -5.27684 2.85568 0
      vertex -4.06369 4.41434 0
    endloop
  endfacet
  facet normal 0 0 -1
    outer loop
      vertex -5.91817 0.987567 0
      vertex -4.6194 1.91342 0
      vertex -5 0 0
    endloop
  endfacet
  facet normal 0 0 -1
    outer loop
      vertex -4.6194 -1.91342 0
      vertex -5.91817 -0.987567 0
      vertex -5 0 0
    endloop
  endfacet
  facet normal 0 0 -1
    outer loop
      vertex -5.91817 0.987567 0
      vertex -5 0 0
      vertex -5.91817 -0.987567 0
    endloop
  endfacet
  facet normal -0 0 -1
    outer loop
      vertex -4.6194 1.91342 0
      vertex -5.91817 0.987567 0
      vertex -5.27684 2.85568 0
    endloop
  endfacet
  facet normal -0.55557 -0.83147 0
    outer loop
      vertex 1.91342 4.6194 0
      vertex 3.53553 3.53553 5
      vertex 1.91342 4.6194 5
    endloop
  endfacet
  facet normal -0.55557 -0.83147 -0
    outer loop
      vertex 3.53553 3.53553 5
      vertex 1.91342 4.6194 0
      vertex 3.53553 3.53553 0
    endloop
  endfacet
  facet normal 0.55557 -0.83147 0
    outer loop
      vertex -3.53553 3.53553 0
      vertex -1.91342 4.6194 5
      vertex -3.53553 3.53553 5
    endloop
  endfacet
  facet normal 0.55557 -0.83147 0
    outer loop
      vertex -1.91342 4.6194 5
      vertex -3.53553 3.53553 0
      vertex -1.91342 4.6194 0
    endloop
  endfacet
  facet normal 0.83147 -0.55557 0
    outer loop
      vertex -4.6194 1.91342 5
      vertex -3.53553 3.53553 0
      vertex -3.53553 3.53553 5
    endloop
  endfacet
  facet normal 0.83147 -0.55557 0
    outer loop
      vertex -3.53553 3.53553 0
      vertex -4.6194 1.91342 5
      vertex -4.6194 1.91342 0
    endloop
  endfacet
  facet normal 0 0 -1
    outer loop
      vertex 4.2 0 5
      vertex 5 0 5
      vertex 4.6194 -1.91342 5
    endloop
  endfacet
  facet normal 0 0 -1
    outer loop
      vertex 5 0 5
      vertex 4.2 0 5
      vertex 4.6194 1.91342 5
    endloop
  endfacet
  facet normal 0 0 -1
    outer loop
      vertex 4.6194 -1.91342 5
      vertex 3.78407 -1.82231 5
      vertex 4.2 0 5
    endloop
  endfacet
  facet normal 0 0 -1
    outer loop
      vertex 3.53553 -3.53553 5
      vertex 3.78407 -1.82231 5
      vertex 4.6194 -1.91342 5
    endloop
  endfacet
  facet normal 0 0 -1
    outer loop
      vertex 3.53553 -3.53553 5
      vertex 2.61866 -3.28369 5
      vertex 3.78407 -1.82231 5
    endloop
  endfacet
  facet normal 0 0 -1
    outer loop
      vertex 1.91342 -4.6194 5
      vertex 2.61866 -3.28369 5
      vertex 3.53553 -3.53553 5
    endloop
  endfacet
  facet normal 0 0 -1
    outer loop
      vertex 1.91342 -4.6194 5
      vertex 0.934587 -4.0947 5
      vertex 2.61866 -3.28369 5
    endloop
  endfacet
  facet normal 0 0 -1
    outer loop
      vertex 0 -5 5
      vertex 0.934587 -4.0947 5
      vertex 1.91342 -4.6194 5
    endloop
  endfacet
  facet normal 0 0 -1
    outer loop
      vertex 0 -5 5
      vertex -0.934587 -4.0947 5
      vertex 0.934587 -4.0947 5
    endloop
  endfacet
  facet normal 0 0 -1
    outer loop
      vertex -1.91342 -4.6194 5
      vertex -0.934587 -4.0947 5
      vertex 0 -5 5
    endloop
  endfacet
  facet normal 0 0 -1
    outer loop
      vertex -1.91342 -4.6194 5
      vertex -2.61866 -3.28369 5
      vertex -0.934587 -4.0947 5
    endloop
  endfacet
  facet normal 0 0 -1
    outer loop
      vertex -3.53553 -3.53553 5
      vertex -2.61866 -3.28369 5
      vertex -1.91342 -4.6194 5
    endloop
  endfacet
  facet normal 0 0 -1
    outer loop
      vertex -3.53553 -3.53553 5
      vertex -3.78407 -1.82231 5
      vertex -2.61866 -3.28369 5
    endloop
  endfacet
  facet normal 0 0 -1
    outer loop
      vertex -4.6194 -1.91342 5
      vertex -3.78407 -1.82231 5
      vertex -3.53553 -3.53553 5
    endloop
  endfacet
  facet normal -0 0 -1
    outer loop
      vertex -3.78407 -1.82231 5
      vertex -4.6194 -1.91342 5
      vertex -4.2 0 5
    endloop
  endfacet
  facet normal 0 0 -1
    outer loop
      vertex 3.78407 1.82231 5
      vertex 4.6194 1.91342 5
      vertex 4.2 0 5
    endloop
  endfacet
  facet normal 0 0 -1
    outer loop
      vertex 3.78407 1.82231 5
      vertex 3.53553 3.53553 5
      vertex 4.6194 1.91342 5
    endloop
  endfacet
  facet normal 0 0 -1
    outer loop
      vertex 2.61866 3.28369 5
      vertex 3.53553 3.53553 5
      vertex 3.78407 1.82231 5
    endloop
  endfacet
  facet normal 0 0 -1
    outer loop
      vertex 2.61866 3.28369 5
      vertex 1.91342 4.6194 5
      vertex 3.53553 3.53553 5
    endloop
  endfacet
  facet normal 0 0 -1
    outer loop
      vertex 0.934587 4.0947 5
      vertex 1.91342 4.6194 5
      vertex 2.61866 3.28369 5
    endloop
  endfacet
  facet normal 0 0 -1
    outer loop
      vertex 0.934587 4.0947 5
      vertex 0 5 5
      vertex 1.91342 4.6194 5
    endloop
  endfacet
  facet normal 0 0 -1
    outer loop
      vertex -0.934587 4.0947 5
      vertex 0 5 5
      vertex 0.934587 4.0947 5
    endloop
  endfacet
  facet normal 0 0 -1
    outer loop
      vertex -0.934587 4.0947 5
      vertex -1.91342 4.6194 5
      vertex 0 5 5
    endloop
  endfacet
  facet normal 0 0 -1
    outer loop
      vertex -2.61866 3.28369 5
      vertex -1.91342 4.6194 5
      vertex -0.934587 4.0947 5
    endloop
  endfacet
  facet normal 0 0 -1
    outer loop
      vertex -2.61866 3.28369 5
      vertex -3.53553 3.53553 5
      vertex -1.91342 4.6194 5
    endloop
  endfacet
  facet normal 0 0 -1
    outer loop
      vertex -3.78407 1.82231 5
      vertex -3.53553 3.53553 5
      vertex -2.61866 3.28369 5
    endloop
  endfacet
  facet normal 0 0 -1
    outer loop
      vertex -4.6194 1.91342 5
      vertex -3.78407 1.82231 5
      vertex -4.2 0 5
    endloop
  endfacet
  facet normal 0 0 -1
    outer loop
      vertex -5 0 5
      vertex -4.2 0 5
      vertex -4.6194 -1.91342 5
    endloop
  endfacet
  facet normal 0 0 -1
    outer loop
      vertex -3.78407 1.82231 5
      vertex -4.6194 1.91342 5
      vertex -3.53553 3.53553 5
    endloop
  endfacet
  facet normal 0 0 -1
    outer loop
      vertex -4.2 0 5
      vertex -5 0 5
      vertex -4.6194 1.91342 5
    endloop
  endfacet
  facet normal 0.195091 -0.980785 0
    outer loop
      vertex -1.91342 4.6194 0
      vertex 0 5 5
      vertex -1.91342 4.6194 5
    endloop
  endfacet
  facet normal 0.195091 -0.980785 0
    outer loop
      vertex 0 5 5
      vertex -1.91342 4.6194 0
      vertex 0 5 0
    endloop
  endfacet
  facet normal 0.55557 0.83147 -0
    outer loop
      vertex -1.91342 -4.6194 0
      vertex -3.53553 -3.53553 5
      vertex -1.91342 -4.6194 5
    endloop
  endfacet
  facet normal 0.55557 0.83147 0
    outer loop
      vertex -3.53553 -3.53553 5
      vertex -1.91342 -4.6194 0
      vertex -3.53553 -3.53553 0
    endloop
  endfacet
  facet normal 0.980785 0.195091 0
    outer loop
      vertex -4.6194 -1.91342 5
      vertex -5 0 0
      vertex -5 0 5
    endloop
  endfacet
  facet normal 0.980785 0.195091 0
    outer loop
      vertex -5 0 0
      vertex -4.6194 -1.91342 5
      vertex -4.6194 -1.91342 0
    endloop
  endfacet
  facet normal -0.980785 0.195091 0
    outer loop
      vertex 4.6194 -1.91342 0
      vertex 5 0 5
      vertex 5 0 0
    endloop
  endfacet
  facet normal -0.980785 0.195091 0
    outer loop
      vertex 5 0 5
      vertex 4.6194 -1.91342 0
      vertex 4.6194 -1.91342 5
    endloop
  endfacet
  facet normal -0.55557 0.83147 0
    outer loop
      vertex 3.53553 -3.53553 0
      vertex 1.91342 -4.6194 5
      vertex 3.53553 -3.53553 5
    endloop
  endfacet
  facet normal -0.55557 0.83147 0
    outer loop
      vertex 1.91342 -4.6194 5
      vertex 3.53553 -3.53553 0
      vertex 1.91342 -4.6194 0
    endloop
  endfacet
  facet normal -0.195091 0.980785 0
    outer loop
      vertex 1.91342 -4.6194 0
      vertex 0 -5 5
      vertex 1.91342 -4.6194 5
    endloop
  endfacet
  facet normal -0.195091 0.980785 0
    outer loop
      vertex 0 -5 5
      vertex 1.91342 -4.6194 0
      vertex 0 -5 0
    endloop
  endfacet
  facet normal -0.83147 0.55557 0
    outer loop
      vertex 3.53553 -3.53553 0
      vertex 4.6194 -1.91342 5
      vertex 4.6194 -1.91342 0
    endloop
  endfacet
  facet normal -0.83147 0.55557 0
    outer loop
      vertex 4.6194 -1.91342 5
      vertex 3.53553 -3.53553 0
      vertex 3.53553 -3.53553 5
    endloop
  endfacet
  facet normal 0.83147 0.55557 0
    outer loop
      vertex -3.53553 -3.53553 5
      vertex -4.6194 -1.91342 0
      vertex -4.6194 -1.91342 5
    endloop
  endfacet
  facet normal 0.83147 0.55557 0
    outer loop
      vertex -4.6194 -1.91342 0
      vertex -3.53553 -3.53553 5
      vertex -3.53553 -3.53553 0
    endloop
  endfacet
  facet normal -0.974928 -0.222521 0
    outer loop
      vertex 4.2 0 5
      vertex 3.78407 1.82231 8
      vertex 3.78407 1.82231 5
    endloop
  endfacet
  facet normal -0.974928 -0.222521 0
    outer loop
      vertex 3.78407 1.82231 8
      vertex 4.2 0 5
      vertex 4.2 0 8
    endloop
  endfacet
  facet normal 0.974928 -0.222521 0
    outer loop
      vertex -4.2 0 8
      vertex -3.78407 1.82231 5
      vertex -3.78407 1.82231 8
    endloop
  endfacet
  facet normal 0.974928 -0.222521 0
    outer loop
      vertex -3.78407 1.82231 5
      vertex -4.2 0 8
      vertex -4.2 0 5
    endloop
  endfacet
  facet normal 0 -1 0
    outer loop
      vertex -0.934587 4.0947 5
      vertex 0.934587 4.0947 8
      vertex -0.934587 4.0947 8
    endloop
  endfacet
  facet normal 0 -1 -0
    outer loop
      vertex 0.934587 4.0947 8
      vertex -0.934587 4.0947 5
      vertex 0.934587 4.0947 5
    endloop
  endfacet
  facet normal 0 0 1
    outer loop
      vertex 4.2 0 8
      vertex 6 0 8
      vertex 5.6749 1.9482 8
    endloop
  endfacet
  facet normal 0 0 1
    outer loop
      vertex 3.78407 1.82231 8
      vertex 5.6749 1.9482 8
      vertex 4.73484 3.68528 8
    endloop
  endfacet
  facet normal 0 0 1
    outer loop
      vertex 6 0 8
      vertex 4.2 0 8
      vertex 5.6749 -1.9482 8
    endloop
  endfacet
  facet normal -0 0 1
    outer loop
      vertex 3.78407 -1.82231 8
      vertex 5.6749 -1.9482 8
      vertex 4.2 0 8
    endloop
  endfacet
  facet normal 0 0 1
    outer loop
      vertex 5.6749 1.9482 8
      vertex 3.78407 1.82231 8
      vertex 4.2 0 8
    endloop
  endfacet
  facet normal 0 0 1
    outer loop
      vertex 2.61866 3.28369 8
      vertex 4.73484 3.68528 8
      vertex 3.28169 5.023 8
    endloop
  endfacet
  facet normal 0 0 1
    outer loop
      vertex 4.73484 3.68528 8
      vertex 2.61866 3.28369 8
      vertex 3.78407 1.82231 8
    endloop
  endfacet
  facet normal 0 0 1
    outer loop
      vertex 0.934587 4.0947 8
      vertex 3.28169 5.023 8
      vertex 1.47291 5.8164 8
    endloop
  endfacet
  facet normal 0 0 1
    outer loop
      vertex 3.28169 5.023 8
      vertex 0.934587 4.0947 8
      vertex 2.61866 3.28369 8
    endloop
  endfacet
  facet normal 0 0 1
    outer loop
      vertex -0.495476 5.97951 8
      vertex 0.934587 4.0947 8
      vertex 1.47291 5.8164 8
    endloop
  endfacet
  facet normal 0 0 1
    outer loop
      vertex -0.495476 5.97951 8
      vertex -0.934587 4.0947 8
      vertex 0.934587 4.0947 8
    endloop
  endfacet
  facet normal -0 0 1
    outer loop
      vertex -2.41017 5.49464 8
      vertex -0.934587 4.0947 8
      vertex -0.495476 5.97951 8
    endloop
  endfacet
  facet normal 0 0 1
    outer loop
      vertex -2.41017 5.49464 8
      vertex -2.61866 3.28369 8
      vertex -0.934587 4.0947 8
    endloop
  endfacet
  facet normal -0 0 1
    outer loop
      vertex -4.06369 4.41434 8
      vertex -2.61866 3.28369 8
      vertex -2.41017 5.49464 8
    endloop
  endfacet
  facet normal 0 0 1
    outer loop
      vertex -2.61866 3.28369 8
      vertex -4.06369 4.41434 8
      vertex -3.78407 1.82231 8
    endloop
  endfacet
  facet normal -0 0 1
    outer loop
      vertex -5.27684 2.85568 8
      vertex -3.78407 1.82231 8
      vertex -4.06369 4.41434 8
    endloop
  endfacet
  facet normal 0 0 1
    outer loop
      vertex -5.91817 0.987567 8
      vertex -3.78407 1.82231 8
      vertex -5.27684 2.85568 8
    endloop
  endfacet
  facet normal 0 0 1
    outer loop
      vertex 5.6749 -1.9482 8
      vertex 3.78407 -1.82231 8
      vertex 4.73484 -3.68528 8
    endloop
  endfacet
  facet normal -0 0 1
    outer loop
      vertex 2.61866 -3.28369 8
      vertex 4.73484 -3.68528 8
      vertex 3.78407 -1.82231 8
    endloop
  endfacet
  facet normal 0 0 1
    outer loop
      vertex 4.73484 -3.68528 8
      vertex 2.61866 -3.28369 8
      vertex 3.28169 -5.023 8
    endloop
  endfacet
  facet normal -0 0 1
    outer loop
      vertex 0.934587 -4.0947 8
      vertex 3.28169 -5.023 8
      vertex 2.61866 -3.28369 8
    endloop
  endfacet
  facet normal 0 0 1
    outer loop
      vertex 3.28169 -5.023 8
      vertex 0.934587 -4.0947 8
      vertex 1.47291 -5.8164 8
    endloop
  endfacet
  facet normal 0 0 1
    outer loop
      vertex 0.934587 -4.0947 8
      vertex -0.495476 -5.97951 8
      vertex 1.47291 -5.8164 8
    endloop
  endfacet
  facet normal -0 0 1
    outer loop
      vertex -0.934587 -4.0947 8
      vertex -0.495476 -5.97951 8
      vertex 0.934587 -4.0947 8
    endloop
  endfacet
  facet normal 0 0 1
    outer loop
      vertex -0.934587 -4.0947 8
      vertex -2.41017 -5.49464 8
      vertex -0.495476 -5.97951 8
    endloop
  endfacet
  facet normal 0 0 1
    outer loop
      vertex -2.61866 -3.28369 8
      vertex -2.41017 -5.49464 8
      vertex -0.934587 -4.0947 8
    endloop
  endfacet
  facet normal 0 0 1
    outer loop
      vertex -4.06369 -4.41434 8
      vertex -2.61866 -3.28369 8
      vertex -3.78407 -1.82231 8
    endloop
  endfacet
  facet normal 0 0 1
    outer loop
      vertex -2.61866 -3.28369 8
      vertex -4.06369 -4.41434 8
      vertex -2.41017 -5.49464 8
    endloop
  endfacet
  facet normal -0 0 1
    outer loop
      vertex -5.91817 -0.987567 8
      vertex -3.78407 -1.82231 8
      vertex -4.2 0 8
    endloop
  endfacet
  facet normal 0 0 1
    outer loop
      vertex -3.78407 1.82231 8
      vertex -5.91817 0.987567 8
      vertex -4.2 0 8
    endloop
  endfacet
  facet normal 0 0 1
    outer loop
      vertex -3.78407 -1.82231 8
      vertex -5.27684 -2.85568 8
      vertex -4.06369 -4.41434 8
    endloop
  endfacet
  facet normal 0 0 1
    outer loop
      vertex -5.91817 -0.987567 8
      vertex -4.2 0 8
      vertex -5.91817 0.987567 8
    endloop
  endfacet
  facet normal 0 0 1
    outer loop
      vertex -3.78407 -1.82231 8
      vertex -5.91817 -0.987567 8
      vertex -5.27684 -2.85568 8
    endloop
  endfacet
  facet normal 0 1 -0
    outer loop
      vertex 0.934587 -4.0947 5
      vertex -0.934587 -4.0947 8
      vertex 0.934587 -4.0947 8
    endloop
  endfacet
  facet normal 0 1 0
    outer loop
      vertex -0.934587 -4.0947 8
      vertex 0.934587 -4.0947 5
      vertex -0.934587 -4.0947 5
    endloop
  endfacet
  facet normal -0.433884 0.900969 0
    outer loop
      vertex 2.61866 -3.28369 5
      vertex 0.934587 -4.0947 8
      vertex 2.61866 -3.28369 8
    endloop
  endfacet
  facet normal -0.433884 0.900969 0
    outer loop
      vertex 0.934587 -4.0947 8
      vertex 2.61866 -3.28369 5
      vertex 0.934587 -4.0947 5
    endloop
  endfacet
  facet normal -0.433884 -0.900969 0
    outer loop
      vertex 0.934587 4.0947 5
      vertex 2.61866 3.28369 8
      vertex 0.934587 4.0947 8
    endloop
  endfacet
  facet normal -0.433884 -0.900969 -0
    outer loop
      vertex 2.61866 3.28369 8
      vertex 0.934587 4.0947 5
      vertex 2.61866 3.28369 5
    endloop
  endfacet
  facet normal -0.781831 -0.62349 0
    outer loop
      vertex 3.78407 1.82231 5
      vertex 2.61866 3.28369 8
      vertex 2.61866 3.28369 5
    endloop
  endfacet
  facet normal -0.781831 -0.62349 0
    outer loop
      vertex 2.61866 3.28369 8
      vertex 3.78407 1.82231 5
      vertex 3.78407 1.82231 8
    endloop
  endfacet
  facet normal 0.781831 -0.62349 0
    outer loop
      vertex -3.78407 1.82231 8
      vertex -2.61866 3.28369 5
      vertex -2.61866 3.28369 8
    endloop
  endfacet
  facet normal 0.781831 -0.62349 0
    outer loop
      vertex -2.61866 3.28369 5
      vertex -3.78407 1.82231 8
      vertex -3.78407 1.82231 5
    endloop
  endfacet
  facet normal 0.433884 -0.900969 0
    outer loop
      vertex -2.61866 3.28369 5
      vertex -0.934587 4.0947 8
      vertex -2.61866 3.28369 8
    endloop
  endfacet
  facet normal 0.433884 -0.900969 0
    outer loop
      vertex -0.934587 4.0947 8
      vertex -2.61866 3.28369 5
      vertex -0.934587 4.0947 5
    endloop
  endfacet
  facet normal -0.974928 0.222521 0
    outer loop
      vertex 3.78407 -1.82231 5
      vertex 4.2 0 8
      vertex 4.2 0 5
    endloop
  endfacet
  facet normal -0.974928 0.222521 0
    outer loop
      vertex 4.2 0 8
      vertex 3.78407 -1.82231 5
      vertex 3.78407 -1.82231 8
    endloop
  endfacet
  facet normal -0.781831 0.62349 0
    outer loop
      vertex 2.61866 -3.28369 5
      vertex 3.78407 -1.82231 8
      vertex 3.78407 -1.82231 5
    endloop
  endfacet
  facet normal -0.781831 0.62349 0
    outer loop
      vertex 3.78407 -1.82231 8
      vertex 2.61866 -3.28369 5
      vertex 2.61866 -3.28369 8
    endloop
  endfacet
  facet normal 0.433884 0.900969 -0
    outer loop
      vertex -0.934587 -4.0947 5
      vertex -2.61866 -3.28369 8
      vertex -0.934587 -4.0947 8
    endloop
  endfacet
  facet normal 0.433884 0.900969 0
    outer loop
      vertex -2.61866 -3.28369 8
      vertex -0.934587 -4.0947 5
      vertex -2.61866 -3.28369 5
    endloop
  endfacet
  facet normal 0.781831 0.62349 0
    outer loop
      vertex -2.61866 -3.28369 8
      vertex -3.78407 -1.82231 5
      vertex -3.78407 -1.82231 8
    endloop
  endfacet
  facet normal 0.781831 0.62349 0
    outer loop
      vertex -3.78407 -1.82231 5
      vertex -2.61866 -3.28369 8
      vertex -2.61866 -3.28369 5
    endloop
  endfacet
  facet normal 0.974928 0.222521 0
    outer loop
      vertex -3.78407 -1.82231 8
      vertex -4.2 0 5
      vertex -4.2 0 8
    endloop
  endfacet
  facet normal 0.974928 0.222521 0
    outer loop
      vertex -4.2 0 5
      vertex -3.78407 -1.82231 8
      vertex -3.78407 -1.82231 5
    endloop
  endfacet
  facet normal 0.986361 0.164595 0
    outer loop
      vertex 6 0 8
      vertex 5.6749 1.9482 0
      vertex 5.6749 1.9482 8
    endloop
  endfacet
  facet normal 0.986361 0.164595 0
    outer loop
      vertex 5.6749 1.9482 0
      vertex 6 0 8
      vertex 6 0 0
    endloop
  endfacet
  facet normal -1 0 0
    outer loop
      vertex -5.91817 -0.987567 0
      vertex -5.91817 0.987567 8
      vertex -5.91817 0.987567 0
    endloop
  endfacet
  facet normal -1 -0 0
    outer loop
      vertex -5.91817 0.987567 8
      vertex -5.91817 -0.987567 0
      vertex -5.91817 -0.987567 8
    endloop
  endfacet
  facet normal 0.0825792 0.996585 -0
    outer loop
      vertex 1.47291 5.8164 0
      vertex -0.495476 5.97951 8
      vertex 1.47291 5.8164 8
    endloop
  endfacet
  facet normal 0.0825792 0.996585 0
    outer loop
      vertex -0.495476 5.97951 8
      vertex 1.47291 5.8164 0
      vertex -0.495476 5.97951 0
    endloop
  endfacet
  facet normal 0.0825792 -0.996585 0
    outer loop
      vertex -0.495476 -5.97951 0
      vertex 1.47291 -5.8164 8
      vertex -0.495476 -5.97951 8
    endloop
  endfacet
  facet normal 0.0825792 -0.996585 0
    outer loop
      vertex 1.47291 -5.8164 8
      vertex -0.495476 -5.97951 0
      vertex 1.47291 -5.8164 0
    endloop
  endfacet
  facet normal 0.401695 -0.915773 0
    outer loop
      vertex 1.47291 -5.8164 0
      vertex 3.28169 -5.023 8
      vertex 1.47291 -5.8164 8
    endloop
  endfacet
  facet normal 0.401695 -0.915773 0
    outer loop
      vertex 3.28169 -5.023 8
      vertex 1.47291 -5.8164 0
      vertex 3.28169 -5.023 0
    endloop
  endfacet
  facet normal 0.677282 0.735724 -0
    outer loop
      vertex 4.73484 3.68528 0
      vertex 3.28169 5.023 8
      vertex 4.73484 3.68528 8
    endloop
  endfacet
  facet normal 0.677282 0.735724 0
    outer loop
      vertex 3.28169 5.023 8
      vertex 4.73484 3.68528 0
      vertex 3.28169 5.023 0
    endloop
  endfacet
  facet normal 0.879474 0.475947 0
    outer loop
      vertex 5.6749 1.9482 8
      vertex 4.73484 3.68528 0
      vertex 4.73484 3.68528 8
    endloop
  endfacet
  facet normal 0.879474 0.475947 0
    outer loop
      vertex 4.73484 3.68528 0
      vertex 5.6749 1.9482 8
      vertex 5.6749 1.9482 0
    endloop
  endfacet
  facet normal 0.401695 0.915773 -0
    outer loop
      vertex 3.28169 5.023 0
      vertex 1.47291 5.8164 8
      vertex 3.28169 5.023 8
    endloop
  endfacet
  facet normal 0.401695 0.915773 0
    outer loop
      vertex 1.47291 5.8164 8
      vertex 3.28169 5.023 0
      vertex 1.47291 5.8164 0
    endloop
  endfacet
  facet normal -0.78914 0.614213 0
    outer loop
      vertex -5.27684 2.85568 0
      vertex -4.06369 4.41434 8
      vertex -4.06369 4.41434 0
    endloop
  endfacet
  facet normal -0.78914 0.614213 0
    outer loop
      vertex -4.06369 4.41434 8
      vertex -5.27684 2.85568 0
      vertex -5.27684 2.85568 8
    endloop
  endfacet
  facet normal -0.945817 0.324699 0
    outer loop
      vertex -5.91817 0.987567 0
      vertex -5.27684 2.85568 8
      vertex -5.27684 2.85568 0
    endloop
  endfacet
  facet normal -0.945817 0.324699 0
    outer loop
      vertex -5.27684 2.85568 8
      vertex -5.91817 0.987567 0
      vertex -5.91817 0.987567 8
    endloop
  endfacet
  facet normal -0.245486 0.9694 0
    outer loop
      vertex -0.495476 5.97951 0
      vertex -2.41017 5.49464 8
      vertex -0.495476 5.97951 8
    endloop
  endfacet
  facet normal -0.245486 0.9694 0
    outer loop
      vertex -2.41017 5.49464 8
      vertex -0.495476 5.97951 0
      vertex -2.41017 5.49464 0
    endloop
  endfacet
  facet normal 0.986361 -0.164595 0
    outer loop
      vertex 5.6749 -1.9482 8
      vertex 6 0 0
      vertex 6 0 8
    endloop
  endfacet
  facet normal 0.986361 -0.164595 0
    outer loop
      vertex 6 0 0
      vertex 5.6749 -1.9482 8
      vertex 5.6749 -1.9482 0
    endloop
  endfacet
  facet normal -0.546948 -0.837166 0
    outer loop
      vertex -4.06369 -4.41434 0
      vertex -2.41017 -5.49464 8
      vertex -4.06369 -4.41434 8
    endloop
  endfacet
  facet normal -0.546948 -0.837166 -0
    outer loop
      vertex -2.41017 -5.49464 8
      vertex -4.06369 -4.41434 0
      vertex -2.41017 -5.49464 0
    endloop
  endfacet
  facet normal -0.945817 -0.324699 0
    outer loop
      vertex -5.27684 -2.85568 0
      vertex -5.91817 -0.987567 8
      vertex -5.91817 -0.987567 0
    endloop
  endfacet
  facet normal -0.945817 -0.324699 0
    outer loop
      vertex -5.91817 -0.987567 8
      vertex -5.27684 -2.85568 0
      vertex -5.27684 -2.85568 8
    endloop
  endfacet
  facet normal -0.546948 0.837166 0
    outer loop
      vertex -2.41017 5.49464 0
      vertex -4.06369 4.41434 8
      vertex -2.41017 5.49464 8
    endloop
  endfacet
  facet normal -0.546948 0.837166 0
    outer loop
      vertex -4.06369 4.41434 8
      vertex -2.41017 5.49464 0
      vertex -4.06369 4.41434 0
    endloop
  endfacet
  facet normal -0.245486 -0.9694 0
    outer loop
      vertex -2.41017 -5.49464 0
      vertex -0.495476 -5.97951 8
      vertex -2.41017 -5.49464 8
    endloop
  endfacet
  facet normal -0.245486 -0.9694 -0
    outer loop
      vertex -0.495476 -5.97951 8
      vertex -2.41017 -5.49464 0
      vertex -0.495476 -5.97951 0
    endloop
  endfacet
  facet normal -0.78914 -0.614213 0
    outer loop
      vertex -4.06369 -4.41434 0
      vertex -5.27684 -2.85568 8
      vertex -5.27684 -2.85568 0
    endloop
  endfacet
  facet normal -0.78914 -0.614213 0
    outer loop
      vertex -5.27684 -2.85568 8
      vertex -4.06369 -4.41434 0
      vertex -4.06369 -4.41434 8
    endloop
  endfacet
  facet normal 0.677282 -0.735724 0
    outer loop
      vertex 3.28169 -5.023 0
      vertex 4.73484 -3.68528 8
      vertex 3.28169 -5.023 8
    endloop
  endfacet
  facet normal 0.677282 -0.735724 0
    outer loop
      vertex 4.73484 -3.68528 8
      vertex 3.28169 -5.023 0
      vertex 4.73484 -3.68528 0
    endloop
  endfacet
  facet normal 0.879474 -0.475947 0
    outer loop
      vertex 4.73484 -3.68528 8
      vertex 5.6749 -1.9482 0
      vertex 5.6749 -1.9482 8
    endloop
  endfacet
  facet normal 0.879474 -0.475947 0
    outer loop
      vertex 5.6749 -1.9482 0
      vertex 4.73484 -3.68528 8
      vertex 4.73484 -3.68528 0
    endloop
  endfacet
endsolid OpenSCAD_Model
