solid OpenSCAD_Model
  facet normal -0.978148 -0.207912 0
    outer loop
      vertex 4.5 0 0
      vertex 4.11095 1.83031 3
      vertex 4.11095 1.83031 0
    endloop
  endfacet
  facet normal -0.978148 -0.207912 0
    outer loop
      vertex 4.11095 1.83031 3
      vertex 4.5 0 0
      vertex 4.5 0 3
    endloop
  endfacet
  facet normal 1 -0 0
    outer loop
      vertex -4.40166 -0.935602 3
      vertex -4.40166 0.935602 0
      vertex -4.40166 0.935602 3
    endloop
  endfacet
  facet normal 1 0 0
    outer loop
      vertex -4.40166 0.935602 0
      vertex -4.40166 -0.935602 3
      vertex -4.40166 -0.935602 0
    endloop
  endfacet
  facet normal -0.104529 -0.994522 0
    outer loop
      vertex -0.470378 4.47535 0
      vertex 1.39058 4.27975 3
      vertex -0.470378 4.47535 3
    endloop
  endfacet
  facet normal -0.104529 -0.994522 -0
    outer loop
      vertex 1.39058 4.27975 3
      vertex -0.470378 4.47535 0
      vertex 1.39058 4.27975 0
    endloop
  endfacet
  facet normal -0.809017 -0.587785 0
    outer loop
      vertex 4.11095 1.83031 0
      vertex 3.01109 3.34415 3
      vertex 3.01109 3.34415 0
    endloop
  endfacet
  facet normal -0.809017 -0.587785 0
    outer loop
      vertex 3.01109 3.34415 3
      vertex 4.11095 1.83031 0
      vertex 4.11095 1.83031 3
    endloop
  endfacet
  facet normal -0.104529 0.994522 0
    outer loop
      vertex 1.39058 -4.27975 0
      vertex -0.470378 -4.47535 3
      vertex 1.39058 -4.27975 3
    endloop
  endfacet
  facet normal -0.104529 0.994522 0
    outer loop
      vertex -0.470378 -4.47535 3
      vertex 1.39058 -4.27975 0
      vertex -0.470378 -4.47535 0
    endloop
  endfacet
  facet normal -0.5 0.866025 0
    outer loop
      vertex 3.01109 -3.34415 0
      vertex 1.39058 -4.27975 3
      vertex 3.01109 -3.34415 3
    endloop
  endfacet
  facet normal -0.5 0.866025 0
    outer loop
      vertex 1.39058 -4.27975 3
      vertex 3.01109 -3.34415 0
      vertex 1.39058 -4.27975 0
    endloop
  endfacet
  facet normal -0.5 -0.866025 0
    outer loop
      vertex 1.39058 4.27975 0
      vertex 3.01109 3.34415 3
      vertex 1.39058 4.27975 3
    endloop
  endfacet
  facet normal -0.5 -0.866025 -0
    outer loop
      vertex 3.01109 3.34415 3
      vertex 1.39058 4.27975 0
      vertex 3.01109 3.34415 0
    endloop
  endfacet
  facet normal 0.66913 -0.743145 0
    outer loop
      vertex -3.64058 2.64503 0
      vertex -2.25 3.89711 3
      vertex -3.64058 2.64503 3
    endloop
  endfacet
  facet normal 0.66913 -0.743145 0
    outer loop
      vertex -2.25 3.89711 3
      vertex -3.64058 2.64503 0
      vertex -2.25 3.89711 0
    endloop
  endfacet
  facet normal 0.913545 -0.406737 0
    outer loop
      vertex -4.40166 0.935602 3
      vertex -3.64058 2.64503 0
      vertex -3.64058 2.64503 3
    endloop
  endfacet
  facet normal 0.913545 -0.406737 0
    outer loop
      vertex -3.64058 2.64503 0
      vertex -4.40166 0.935602 3
      vertex -4.40166 0.935602 0
    endloop
  endfacet
  facet normal 0 0 -1
    outer loop
      vertex 4 0 3
      vertex 4.5 0 3
      vertex 4.11095 -1.83031 3
    endloop
  endfacet
  facet normal 0 0 -1
    outer loop
      vertex 4.5 0 3
      vertex 4 0 3
      vertex 4.11095 1.83031 3
    endloop
  endfacet
  facet normal -0 0 -1
    outer loop
      vertex 4.11095 -1.83031 3
      vertex 3.54182 -1.85889 3
      vertex 4 0 3
    endloop
  endfacet
  facet normal 0 0 -1
    outer loop
      vertex 3.01109 -3.34415 3
      vertex 3.54182 -1.85889 3
      vertex 4.11095 -1.83031 3
    endloop
  endfacet
  facet normal 0 0 -1
    outer loop
      vertex 3.01109 -3.34415 3
      vertex 2.27226 -3.29193 3
      vertex 3.54182 -1.85889 3
    endloop
  endfacet
  facet normal 0 0 -1
    outer loop
      vertex 1.39058 -4.27975 3
      vertex 2.27226 -3.29193 3
      vertex 3.01109 -3.34415 3
    endloop
  endfacet
  facet normal 0 0 -1
    outer loop
      vertex 1.39058 -4.27975 3
      vertex 0.482146 -3.97083 3
      vertex 2.27226 -3.29193 3
    endloop
  endfacet
  facet normal 0 0 -1
    outer loop
      vertex -0.470378 -4.47535 3
      vertex 0.482146 -3.97083 3
      vertex 1.39058 -4.27975 3
    endloop
  endfacet
  facet normal 0 0 -1
    outer loop
      vertex -0.470378 -4.47535 3
      vertex -1.41842 -3.74006 3
      vertex 0.482146 -3.97083 3
    endloop
  endfacet
  facet normal 0 0 -1
    outer loop
      vertex -2.25 -3.89711 3
      vertex -1.41842 -3.74006 3
      vertex -0.470378 -4.47535 3
    endloop
  endfacet
  facet normal 0 0 -1
    outer loop
      vertex -2.25 -3.89711 3
      vertex -2.99404 -2.65249 3
      vertex -1.41842 -3.74006 3
    endloop
  endfacet
  facet normal 0 0 -1
    outer loop
      vertex -3.64058 -2.64503 3
      vertex -2.99404 -2.65249 3
      vertex -2.25 -3.89711 3
    endloop
  endfacet
  facet normal 0 0 -1
    outer loop
      vertex -3.64058 -2.64503 3
      vertex -3.88377 -0.957262 3
      vertex -2.99404 -2.65249 3
    endloop
  endfacet
  facet normal 0 0 -1
    outer loop
      vertex -3.88377 -0.957262 3
      vertex -4.40166 -0.935602 3
      vertex -3.88377 0.957262 3
    endloop
  endfacet
  facet normal 0 0 -1
    outer loop
      vertex -4.40166 -0.935602 3
      vertex -3.88377 -0.957262 3
      vertex -3.64058 -2.64503 3
    endloop
  endfacet
  facet normal 0 0 -1
    outer loop
      vertex 3.54182 1.85889 3
      vertex 4.11095 1.83031 3
      vertex 4 0 3
    endloop
  endfacet
  facet normal 0 0 -1
    outer loop
      vertex 3.54182 1.85889 3
      vertex 3.01109 3.34415 3
      vertex 4.11095 1.83031 3
    endloop
  endfacet
  facet normal 0 0 -1
    outer loop
      vertex 2.27226 3.29193 3
      vertex 3.01109 3.34415 3
      vertex 3.54182 1.85889 3
    endloop
  endfacet
  facet normal 0 0 -1
    outer loop
      vertex 2.27226 3.29193 3
      vertex 1.39058 4.27975 3
      vertex 3.01109 3.34415 3
    endloop
  endfacet
  facet normal 0 0 -1
    outer loop
      vertex 0.482146 3.97083 3
      vertex 1.39058 4.27975 3
      vertex 2.27226 3.29193 3
    endloop
  endfacet
  facet normal 0 0 -1
    outer loop
      vertex 0.482146 3.97083 3
      vertex -0.470378 4.47535 3
      vertex 1.39058 4.27975 3
    endloop
  endfacet
  facet normal 0 0 -1
    outer loop
      vertex -1.41842 3.74006 3
      vertex -0.470378 4.47535 3
      vertex 0.482146 3.97083 3
    endloop
  endfacet
  facet normal 0 0 -1
    outer loop
      vertex -1.41842 3.74006 3
      vertex -2.25 3.89711 3
      vertex -0.470378 4.47535 3
    endloop
  endfacet
  facet normal 0 0 -1
    outer loop
      vertex -2.99404 2.65249 3
      vertex -2.25 3.89711 3
      vertex -1.41842 3.74006 3
    endloop
  endfacet
  facet normal -0 0 -1
    outer loop
      vertex -2.99404 2.65249 3
      vertex -3.64058 2.64503 3
      vertex -2.25 3.89711 3
    endloop
  endfacet
  facet normal 0 0 -1
    outer loop
      vertex -3.88377 0.957262 3
      vertex -3.64058 2.64503 3
      vertex -2.99404 2.65249 3
    endloop
  endfacet
  facet normal 0 0 -1
    outer loop
      vertex -4.40166 0.935602 3
      vertex -3.88377 0.957262 3
      vertex -4.40166 -0.935602 3
    endloop
  endfacet
  facet normal -0 0 -1
    outer loop
      vertex -3.88377 0.957262 3
      vertex -4.40166 0.935602 3
      vertex -3.64058 2.64503 3
    endloop
  endfacet
  facet normal 0.309017 -0.951056 0
    outer loop
      vertex -2.25 3.89711 0
      vertex -0.470378 4.47535 3
      vertex -2.25 3.89711 3
    endloop
  endfacet
  facet normal 0.309017 -0.951056 0
    outer loop
      vertex -0.470378 4.47535 3
      vertex -2.25 3.89711 0
      vertex -0.470378 4.47535 0
    endloop
  endfacet
  facet normal -0.978148 0.207912 0
    outer loop
      vertex 4.11095 -1.83031 0
      vertex 4.5 0 3
      vertex 4.5 0 0
    endloop
  endfacet
  facet normal -0.978148 0.207912 0
    outer loop
      vertex 4.5 0 3
      vertex 4.11095 -1.83031 0
      vertex 4.11095 -1.83031 3
    endloop
  endfacet
  facet normal 0 0 -1
    outer loop
      vertex 4.5 0 0
      vertex 5.5 0 0
      vertex 5.16831 -1.88111 0
    endloop
  endfacet
  facet normal 0 0 -1
    outer loop
      vertex 5.5 0 0
      vertex 4.5 0 0
      vertex 5.16831 1.88111 0
    endloop
  endfacet
  facet normal 0 0 -1
    outer loop
      vertex 4.11095 -1.83031 0
      vertex 5.16831 -1.88111 0
      vertex 4.21324 -3.53533 0
    endloop
  endfacet
  facet normal 0 0 -1
    outer loop
      vertex 5.16831 -1.88111 0
      vertex 4.11095 -1.83031 0
      vertex 4.5 0 0
    endloop
  endfacet
  facet normal 0 0 -1
    outer loop
      vertex 4.21324 -3.53533 0
      vertex 3.01109 -3.34415 0
      vertex 4.11095 -1.83031 0
    endloop
  endfacet
  facet normal 0 0 -1
    outer loop
      vertex 2.75 -4.76314 0
      vertex 3.01109 -3.34415 0
      vertex 4.21324 -3.53533 0
    endloop
  endfacet
  facet normal 0 0 -1
    outer loop
      vertex 2.75 -4.76314 0
      vertex 1.39058 -4.27975 0
      vertex 3.01109 -3.34415 0
    endloop
  endfacet
  facet normal 0 0 -1
    outer loop
      vertex 0.955065 -5.41644 0
      vertex 1.39058 -4.27975 0
      vertex 2.75 -4.76314 0
    endloop
  endfacet
  facet normal 0 0 -1
    outer loop
      vertex 0.955065 -5.41644 0
      vertex -0.470378 -4.47535 0
      vertex 1.39058 -4.27975 0
    endloop
  endfacet
  facet normal 0 0 -1
    outer loop
      vertex -0.955065 -5.41644 0
      vertex -0.470378 -4.47535 0
      vertex 0.955065 -5.41644 0
    endloop
  endfacet
  facet normal 0 0 -1
    outer loop
      vertex -0.955065 -5.41644 0
      vertex -2.25 -3.89711 0
      vertex -0.470378 -4.47535 0
    endloop
  endfacet
  facet normal 0 0 -1
    outer loop
      vertex -2.75 -4.76314 0
      vertex -2.25 -3.89711 0
      vertex -0.955065 -5.41644 0
    endloop
  endfacet
  facet normal 0 0 -1
    outer loop
      vertex -4.21324 -3.53533 0
      vertex -2.25 -3.89711 0
      vertex -2.75 -4.76314 0
    endloop
  endfacet
  facet normal 0 0 -1
    outer loop
      vertex -2.25 -3.89711 0
      vertex -4.21324 -3.53533 0
      vertex -3.64058 -2.64503 0
    endloop
  endfacet
  facet normal 0 0 -1
    outer loop
      vertex -5.16831 -1.88111 0
      vertex -3.64058 -2.64503 0
      vertex -4.21324 -3.53533 0
    endloop
  endfacet
  facet normal 0 0 -1
    outer loop
      vertex -5.5 0 0
      vertex -4.40166 -0.935602 0
      vertex -5.16831 -1.88111 0
    endloop
  endfacet
  facet normal 0 0 -1
    outer loop
      vertex -3.64058 -2.64503 0
      vertex -5.16831 -1.88111 0
      vertex -4.40166 -0.935602 0
    endloop
  endfacet
  facet normal 0 0 -1
    outer loop
      vertex 4.11095 1.83031 0
      vertex 5.16831 1.88111 0
      vertex 4.5 0 0
    endloop
  endfacet
  facet normal -0 0 -1
    outer loop
      vertex 5.16831 1.88111 0
      vertex 4.11095 1.83031 0
      vertex 4.21324 3.53533 0
    endloop
  endfacet
  facet normal 0 0 -1
    outer loop
      vertex 3.01109 3.34415 0
      vertex 4.21324 3.53533 0
      vertex 4.11095 1.83031 0
    endloop
  endfacet
  facet normal 0 0 -1
    outer loop
      vertex 3.01109 3.34415 0
      vertex 2.75 4.76314 0
      vertex 4.21324 3.53533 0
    endloop
  endfacet
  facet normal 0 0 -1
    outer loop
      vertex 1.39058 4.27975 0
      vertex 2.75 4.76314 0
      vertex 3.01109 3.34415 0
    endloop
  endfacet
  facet normal 0 0 -1
    outer loop
      vertex 1.39058 4.27975 0
      vertex 0.955065 5.41644 0
      vertex 2.75 4.76314 0
    endloop
  endfacet
  facet normal 0 0 -1
    outer loop
      vertex -0.470378 4.47535 0
      vertex 0.955065 5.41644 0
      vertex 1.39058 4.27975 0
    endloop
  endfacet
  facet normal 0 0 -1
    outer loop
      vertex -0.470378 4.47535 0
      vertex -0.955065 5.41644 0
      vertex 0.955065 5.41644 0
    endloop
  endfacet
  facet normal 0 0 -1
    outer loop
      vertex -2.25 3.89711 0
      vertex -0.955065 5.41644 0
      vertex -0.470378 4.47535 0
    endloop
  endfacet
  facet normal 0 0 -1
    outer loop
      vertex -2.25 3.89711 0
      vertex -2.75 4.76314 0
      vertex -0.955065 5.41644 0
    endloop
  endfacet
  facet normal 0 0 -1
    outer loop
      vertex -4.21324 3.53533 0
      vertex -2.25 3.89711 0
      vertex -3.64058 2.64503 0
    endloop
  endfacet
  facet normal -0 0 -1
    outer loop
      vertex -2.25 3.89711 0
      vertex -4.21324 3.53533 0
      vertex -2.75 4.76314 0
    endloop
  endfacet
  facet normal 0 0 -1
    outer loop
      vertex -5.16831 1.88111 0
      vertex -3.64058 2.64503 0
      vertex -4.40166 0.935602 0
    endloop
  endfacet
  facet normal 0 0 -1
    outer loop
      vertex -4.40166 -0.935602 0
      vertex -5.5 0 0
      vertex -4.40166 0.935602 0
    endloop
  endfacet
  facet normal -0 0 -1
    outer loop
      vertex -3.64058 2.64503 0
      vertex -5.16831 1.88111 0
      vertex -4.21324 3.53533 0
    endloop
  endfacet
  facet normal -0 0 -1
    outer loop
      vertex -4.40166 0.935602 0
      vertex -5.5 0 0
      vertex -5.16831 1.88111 0
    endloop
  endfacet
  facet normal 0.309017 0.951056 -0
    outer loop
      vertex -0.470378 -4.47535 0
      vertex -2.25 -3.89711 3
      vertex -0.470378 -4.47535 3
    endloop
  endfacet
  facet normal 0.309017 0.951056 0
    outer loop
      vertex -2.25 -3.89711 3
      vertex -0.470378 -4.47535 0
      vertex -2.25 -3.89711 0
    endloop
  endfacet
  facet normal -0.809017 0.587785 0
    outer loop
      vertex 3.01109 -3.34415 0
      vertex 4.11095 -1.83031 3
      vertex 4.11095 -1.83031 0
    endloop
  endfacet
  facet normal -0.809017 0.587785 0
    outer loop
      vertex 4.11095 -1.83031 3
      vertex 3.01109 -3.34415 0
      vertex 3.01109 -3.34415 3
    endloop
  endfacet
  facet normal 0.669131 0.743145 -0
    outer loop
      vertex -2.25 -3.89711 0
      vertex -3.64058 -2.64503 3
      vertex -2.25 -3.89711 3
    endloop
  endfacet
  facet normal 0.669131 0.743145 0
    outer loop
      vertex -3.64058 -2.64503 3
      vertex -2.25 -3.89711 0
      vertex -3.64058 -2.64503 0
    endloop
  endfacet
  facet normal 0.913545 0.406737 0
    outer loop
      vertex -3.64058 -2.64503 3
      vertex -4.40166 -0.935602 0
      vertex -4.40166 -0.935602 3
    endloop
  endfacet
  facet normal 0.913545 0.406737 0
    outer loop
      vertex -4.40166 -0.935602 0
      vertex -3.64058 -2.64503 3
      vertex -3.64058 -2.64503 0
    endloop
  endfacet
  facet normal -0.970942 -0.239316 0
    outer loop
      vertex 4 0 3
      vertex 3.54182 1.85889 4.2
      vertex 3.54182 1.85889 3
    endloop
  endfacet
  facet normal -0.970942 -0.239316 0
    outer loop
      vertex 3.54182 1.85889 4.2
      vertex 4 0 3
      vertex 4 0 4.2
    endloop
  endfacet
  facet normal 1 -0 0
    outer loop
      vertex -3.88377 -0.957262 4.2
      vertex -3.88377 0.957262 3
      vertex -3.88377 0.957262 4.2
    endloop
  endfacet
  facet normal 1 0 0
    outer loop
      vertex -3.88377 0.957262 3
      vertex -3.88377 -0.957262 4.2
      vertex -3.88377 -0.957262 3
    endloop
  endfacet
  facet normal 0.120537 -0.992709 0
    outer loop
      vertex -1.41842 3.74006 3
      vertex 0.482146 3.97083 4.2
      vertex -1.41842 3.74006 4.2
    endloop
  endfacet
  facet normal 0.120537 -0.992709 0
    outer loop
      vertex 0.482146 3.97083 4.2
      vertex -1.41842 3.74006 3
      vertex 0.482146 3.97083 3
    endloop
  endfacet
  facet normal -0.748511 -0.663123 0
    outer loop
      vertex 3.54182 1.85889 3
      vertex 2.27226 3.29193 4.2
      vertex 2.27226 3.29193 3
    endloop
  endfacet
  facet normal -0.748511 -0.663123 0
    outer loop
      vertex 2.27226 3.29193 4.2
      vertex 3.54182 1.85889 3
      vertex 3.54182 1.85889 4.2
    endloop
  endfacet
  facet normal 0.568065 -0.822984 0
    outer loop
      vertex -2.99404 2.65249 3
      vertex -1.41842 3.74006 4.2
      vertex -2.99404 2.65249 4.2
    endloop
  endfacet
  facet normal 0.568065 -0.822984 0
    outer loop
      vertex -1.41842 3.74006 4.2
      vertex -2.99404 2.65249 3
      vertex -1.41842 3.74006 3
    endloop
  endfacet
  facet normal -0.970942 0.239316 0
    outer loop
      vertex 3.54182 -1.85889 3
      vertex 4 0 4.2
      vertex 4 0 3
    endloop
  endfacet
  facet normal -0.970942 0.239316 0
    outer loop
      vertex 4 0 4.2
      vertex 3.54182 -1.85889 3
      vertex 3.54182 -1.85889 4.2
    endloop
  endfacet
  facet normal -0.354605 -0.935016 0
    outer loop
      vertex 0.482146 3.97083 3
      vertex 2.27226 3.29193 4.2
      vertex 0.482146 3.97083 4.2
    endloop
  endfacet
  facet normal -0.354605 -0.935016 -0
    outer loop
      vertex 2.27226 3.29193 4.2
      vertex 0.482146 3.97083 3
      vertex 2.27226 3.29193 3
    endloop
  endfacet
  facet normal 0.885456 0.464723 0
    outer loop
      vertex -2.99404 -2.65249 4.2
      vertex -3.88377 -0.957262 3
      vertex -3.88377 -0.957262 4.2
    endloop
  endfacet
  facet normal 0.885456 0.464723 0
    outer loop
      vertex -3.88377 -0.957262 3
      vertex -2.99404 -2.65249 4.2
      vertex -2.99404 -2.65249 3
    endloop
  endfacet
  facet normal -0.748511 0.663123 0
    outer loop
      vertex 2.27226 -3.29193 3
      vertex 3.54182 -1.85889 4.2
      vertex 3.54182 -1.85889 3
    endloop
  endfacet
  facet normal -0.748511 0.663123 0
    outer loop
      vertex 3.54182 -1.85889 4.2
      vertex 2.27226 -3.29193 3
      vertex 2.27226 -3.29193 4.2
    endloop
  endfacet
  facet normal 0 0 1
    outer loop
      vertex 4 0 4.2
      vertex 5.5 0 4.2
      vertex 5.16831 1.88111 4.2
    endloop
  endfacet
  facet normal 0 0 1
    outer loop
      vertex 3.54182 1.85889 4.2
      vertex 5.16831 1.88111 4.2
      vertex 4.21324 3.53533 4.2
    endloop
  endfacet
  facet normal 0 0 1
    outer loop
      vertex 5.5 0 4.2
      vertex 4 0 4.2
      vertex 5.16831 -1.88111 4.2
    endloop
  endfacet
  facet normal -0 0 1
    outer loop
      vertex 3.54182 -1.85889 4.2
      vertex 5.16831 -1.88111 4.2
      vertex 4 0 4.2
    endloop
  endfacet
  facet normal 0 0 1
    outer loop
      vertex 5.16831 1.88111 4.2
      vertex 3.54182 1.85889 4.2
      vertex 4 0 4.2
    endloop
  endfacet
  facet normal 0 0 1
    outer loop
      vertex 2.27226 3.29193 4.2
      vertex 4.21324 3.53533 4.2
      vertex 2.75 4.76314 4.2
    endloop
  endfacet
  facet normal 0 0 1
    outer loop
      vertex 4.21324 3.53533 4.2
      vertex 2.27226 3.29193 4.2
      vertex 3.54182 1.85889 4.2
    endloop
  endfacet
  facet normal 0 0 1
    outer loop
      vertex 0.482146 3.97083 4.2
      vertex 2.75 4.76314 4.2
      vertex 0.955065 5.41644 4.2
    endloop
  endfacet
  facet normal 0 0 1
    outer loop
      vertex 2.75 4.76314 4.2
      vertex 0.482146 3.97083 4.2
      vertex 2.27226 3.29193 4.2
    endloop
  endfacet
  facet normal -0 0 1
    outer loop
      vertex -0.955065 5.41644 4.2
      vertex 0.482146 3.97083 4.2
      vertex 0.955065 5.41644 4.2
    endloop
  endfacet
  facet normal 0 0 1
    outer loop
      vertex -0.955065 5.41644 4.2
      vertex -1.41842 3.74006 4.2
      vertex 0.482146 3.97083 4.2
    endloop
  endfacet
  facet normal -0 0 1
    outer loop
      vertex -2.75 4.76314 4.2
      vertex -1.41842 3.74006 4.2
      vertex -0.955065 5.41644 4.2
    endloop
  endfacet
  facet normal 0 0 1
    outer loop
      vertex -2.75 4.76314 4.2
      vertex -2.99404 2.65249 4.2
      vertex -1.41842 3.74006 4.2
    endloop
  endfacet
  facet normal -0 0 1
    outer loop
      vertex -4.21324 3.53533 4.2
      vertex -2.99404 2.65249 4.2
      vertex -2.75 4.76314 4.2
    endloop
  endfacet
  facet normal 0 0 1
    outer loop
      vertex -2.99404 2.65249 4.2
      vertex -5.16831 1.88111 4.2
      vertex -3.88377 0.957262 4.2
    endloop
  endfacet
  facet normal 0 0 1
    outer loop
      vertex -5.16831 1.88111 4.2
      vertex -2.99404 2.65249 4.2
      vertex -4.21324 3.53533 4.2
    endloop
  endfacet
  facet normal 0 0 1
    outer loop
      vertex 5.16831 -1.88111 4.2
      vertex 3.54182 -1.85889 4.2
      vertex 4.21324 -3.53533 4.2
    endloop
  endfacet
  facet normal -0 0 1
    outer loop
      vertex 2.27226 -3.29193 4.2
      vertex 4.21324 -3.53533 4.2
      vertex 3.54182 -1.85889 4.2
    endloop
  endfacet
  facet normal 0 0 1
    outer loop
      vertex 4.21324 -3.53533 4.2
      vertex 2.27226 -3.29193 4.2
      vertex 2.75 -4.76314 4.2
    endloop
  endfacet
  facet normal -0 0 1
    outer loop
      vertex 0.482146 -3.97083 4.2
      vertex 2.75 -4.76314 4.2
      vertex 2.27226 -3.29193 4.2
    endloop
  endfacet
  facet normal 0 0 1
    outer loop
      vertex 2.75 -4.76314 4.2
      vertex 0.482146 -3.97083 4.2
      vertex 0.955065 -5.41644 4.2
    endloop
  endfacet
  facet normal 0 0 1
    outer loop
      vertex 0.482146 -3.97083 4.2
      vertex -0.955065 -5.41644 4.2
      vertex 0.955065 -5.41644 4.2
    endloop
  endfacet
  facet normal 0 0 1
    outer loop
      vertex -1.41842 -3.74006 4.2
      vertex -0.955065 -5.41644 4.2
      vertex 0.482146 -3.97083 4.2
    endloop
  endfacet
  facet normal 0 0 1
    outer loop
      vertex -1.41842 -3.74006 4.2
      vertex -2.75 -4.76314 4.2
      vertex -0.955065 -5.41644 4.2
    endloop
  endfacet
  facet normal 0 0 1
    outer loop
      vertex -2.99404 -2.65249 4.2
      vertex -2.75 -4.76314 4.2
      vertex -1.41842 -3.74006 4.2
    endloop
  endfacet
  facet normal -0 0 1
    outer loop
      vertex -5.16831 -1.88111 4.2
      vertex -2.99404 -2.65249 4.2
      vertex -3.88377 -0.957262 4.2
    endloop
  endfacet
  facet normal 0 0 1
    outer loop
      vertex -2.99404 -2.65249 4.2
      vertex -4.21324 -3.53533 4.2
      vertex -2.75 -4.76314 4.2
    endloop
  endfacet
  facet normal 0 0 1
    outer loop
      vertex -5.5 0 4.2
      vertex -3.88377 0.957262 4.2
      vertex -5.16831 1.88111 4.2
    endloop
  endfacet
  facet normal 0 0 1
    outer loop
      vertex -3.88377 0.957262 4.2
      vertex -5.5 0 4.2
      vertex -3.88377 -0.957262 4.2
    endloop
  endfacet
  facet normal 0 0 1
    outer loop
      vertex -2.99404 -2.65249 4.2
      vertex -5.16831 -1.88111 4.2
      vertex -4.21324 -3.53533 4.2
    endloop
  endfacet
  facet normal 0 0 1
    outer loop
      vertex -3.88377 -0.957262 4.2
      vertex -5.5 0 4.2
      vertex -5.16831 -1.88111 4.2
    endloop
  endfacet
  facet normal 0.885456 -0.464723 0
    outer loop
      vertex -3.88377 0.957262 4.2
      vertex -2.99404 2.65249 3
      vertex -2.99404 2.65249 4.2
    endloop
  endfacet
  facet normal 0.885456 -0.464723 0
    outer loop
      vertex -2.99404 2.65249 3
      vertex -3.88377 0.957262 4.2
      vertex -3.88377 0.957262 3
    endloop
  endfacet
  facet normal 0.568065 0.822984 -0
    outer loop
      vertex -1.41842 -3.74006 3
      vertex -2.99404 -2.65249 4.2
      vertex -1.41842 -3.74006 4.2
    endloop
  endfacet
  facet normal 0.568065 0.822984 0
    outer loop
      vertex -2.99404 -2.65249 4.2
      vertex -1.41842 -3.74006 3
      vertex -2.99404 -2.65249 3
    endloop
  endfacet
  facet normal -0.354605 0.935016 0
    outer loop
      vertex 2.27226 -3.29193 3
      vertex 0.482146 -3.97083 4.2
      vertex 2.27226 -3.29193 4.2
    endloop
  endfacet
  facet normal -0.354605 0.935016 0
    outer loop
      vertex 0.482146 -3.97083 4.2
      vertex 2.27226 -3.29193 3
      vertex 0.482146 -3.97083 3
    endloop
  endfacet
  facet normal 0.120537 0.992709 -0
    outer loop
      vertex 0.482146 -3.97083 3
      vertex -1.41842 -3.74006 4.2
      vertex 0.482146 -3.97083 4.2
    endloop
  endfacet
  facet normal 0.120537 0.992709 0
    outer loop
      vertex -1.41842 -3.74006 4.2
      vertex 0.482146 -3.97083 3
      vertex -1.41842 -3.74006 3
    endloop
  endfacet
  facet normal 0.984808 0.173648 0
    outer loop
      vertex 5.5 0 4.2
      vertex 5.16831 1.88111 0
      vertex 5.16831 1.88111 4.2
    endloop
  endfacet
  facet normal 0.984808 0.173648 0
    outer loop
      vertex 5.16831 1.88111 0
      vertex 5.5 0 4.2
      vertex 5.5 0 0
    endloop
  endfacet
  facet normal -0.984808 0.173648 0
    outer loop
      vertex -5.5 0 0
      vertex -5.16831 1.88111 4.2
      vertex -5.16831 1.88111 0
    endloop
  endfacet
  facet normal -0.984808 0.173648 0
    outer loop
      vertex -5.16831 1.88111 4.2
      vertex -5.5 0 0
      vertex -5.5 0 4.2
    endloop
  endfacet
  facet normal -0.984808 -0.173648 0
    outer loop
      vertex -5.16831 -1.88111 0
      vertex -5.5 0 4.2
      vertex -5.5 0 0
    endloop
  endfacet
  facet normal -0.984808 -0.173648 0
    outer loop
      vertex -5.5 0 4.2
      vertex -5.16831 -1.88111 0
      vertex -5.16831 -1.88111 4.2
    endloop
  endfacet
  facet normal 0 1 -0
    outer loop
      vertex 0.955065 5.41644 0
      vertex -0.955065 5.41644 4.2
      vertex 0.955065 5.41644 4.2
    endloop
  endfacet
  facet normal 0 1 0
    outer loop
      vertex -0.955065 5.41644 4.2
      vertex 0.955065 5.41644 0
      vertex -0.955065 5.41644 0
    endloop
  endfacet
  facet normal 0.642788 0.766044 -0
    outer loop
      vertex 4.21324 3.53533 0
      vertex 2.75 4.76314 4.2
      vertex 4.21324 3.53533 4.2
    endloop
  endfacet
  facet normal 0.642788 0.766044 0
    outer loop
      vertex 2.75 4.76314 4.2
      vertex 4.21324 3.53533 0
      vertex 2.75 4.76314 0
    endloop
  endfacet
  facet normal 0.866025 0.5 0
    outer loop
      vertex 5.16831 1.88111 4.2
      vertex 4.21324 3.53533 0
      vertex 4.21324 3.53533 4.2
    endloop
  endfacet
  facet normal 0.866025 0.5 0
    outer loop
      vertex 4.21324 3.53533 0
      vertex 5.16831 1.88111 4.2
      vertex 5.16831 1.88111 0
    endloop
  endfacet
  facet normal 0.34202 0.939693 -0
    outer loop
      vertex 2.75 4.76314 0
      vertex 0.955065 5.41644 4.2
      vertex 2.75 4.76314 4.2
    endloop
  endfacet
  facet normal 0.34202 0.939693 0
    outer loop
      vertex 0.955065 5.41644 4.2
      vertex 2.75 4.76314 0
      vertex 0.955065 5.41644 0
    endloop
  endfacet
  facet normal -0.34202 0.939693 0
    outer loop
      vertex -0.955065 5.41644 0
      vertex -2.75 4.76314 4.2
      vertex -0.955065 5.41644 4.2
    endloop
  endfacet
  facet normal -0.34202 0.939693 0
    outer loop
      vertex -2.75 4.76314 4.2
      vertex -0.955065 5.41644 0
      vertex -2.75 4.76314 0
    endloop
  endfacet
  facet normal -0.866025 0.5 0
    outer loop
      vertex -5.16831 1.88111 0
      vertex -4.21324 3.53533 4.2
      vertex -4.21324 3.53533 0
    endloop
  endfacet
  facet normal -0.866025 0.5 0
    outer loop
      vertex -4.21324 3.53533 4.2
      vertex -5.16831 1.88111 0
      vertex -5.16831 1.88111 4.2
    endloop
  endfacet
  facet normal -0.642787 0.766045 0
    outer loop
      vertex -2.75 4.76314 0
      vertex -4.21324 3.53533 4.2
      vertex -2.75 4.76314 4.2
    endloop
  endfacet
  facet normal -0.642787 0.766045 0
    outer loop
      vertex -4.21324 3.53533 4.2
      vertex -2.75 4.76314 0
      vertex -4.21324 3.53533 0
    endloop
  endfacet
  facet normal 0.34202 -0.939693 0
    outer loop
      vertex 0.955065 -5.41644 0
      vertex 2.75 -4.76314 4.2
      vertex 0.955065 -5.41644 4.2
    endloop
  endfacet
  facet normal 0.34202 -0.939693 0
    outer loop
      vertex 2.75 -4.76314 4.2
      vertex 0.955065 -5.41644 0
      vertex 2.75 -4.76314 0
    endloop
  endfacet
  facet normal 0.866025 -0.5 0
    outer loop
      vertex 4.21324 -3.53533 4.2
      vertex 5.16831 -1.88111 0
      vertex 5.16831 -1.88111 4.2
    endloop
  endfacet
  facet normal 0.866025 -0.5 0
    outer loop
      vertex 5.16831 -1.88111 0
      vertex 4.21324 -3.53533 4.2
      vertex 4.21324 -3.53533 0
    endloop
  endfacet
  facet normal 0.984808 -0.173648 0
    outer loop
      vertex 5.16831 -1.88111 4.2
      vertex 5.5 0 0
      vertex 5.5 0 4.2
    endloop
  endfacet
  facet normal 0.984808 -0.173648 0
    outer loop
      vertex 5.5 0 0
      vertex 5.16831 -1.88111 4.2
      vertex 5.16831 -1.88111 0
    endloop
  endfacet
  facet normal -0.866025 -0.5 0
    outer loop
      vertex -4.21324 -3.53533 0
      vertex -5.16831 -1.88111 4.2
      vertex -5.16831 -1.88111 0
    endloop
  endfacet
  facet normal -0.866025 -0.5 0
    outer loop
      vertex -5.16831 -1.88111 4.2
      vertex -4.21324 -3.53533 0
      vertex -4.21324 -3.53533 4.2
    endloop
  endfacet
  facet normal 0.642787 -0.766045 0
    outer loop
      vertex 2.75 -4.76314 0
      vertex 4.21324 -3.53533 4.2
      vertex 2.75 -4.76314 4.2
    endloop
  endfacet
  facet normal 0.642787 -0.766045 0
    outer loop
      vertex 4.21324 -3.53533 4.2
      vertex 2.75 -4.76314 0
      vertex 4.21324 -3.53533 0
    endloop
  endfacet
  facet normal 0 -1 0
    outer loop
      vertex -0.955065 -5.41644 0
      vertex 0.955065 -5.41644 4.2
      vertex -0.955065 -5.41644 4.2
    endloop
  endfacet
  facet normal 0 -1 -0
    outer loop
      vertex 0.955065 -5.41644 4.2
      vertex -0.955065 -5.41644 0
      vertex 0.955065 -5.41644 0
    endloop
  endfacet
  facet normal -0.34202 -0.939693 0
    outer loop
      vertex -2.75 -4.76314 0
      vertex -0.955065 -5.41644 4.2
      vertex -2.75 -4.76314 4.2
    endloop
  endfacet
  facet normal -0.34202 -0.939693 -0
    outer loop
      vertex -0.955065 -5.41644 4.2
      vertex -2.75 -4.76314 0
      vertex -0.955065 -5.41644 0
    endloop
  endfacet
  facet normal -0.642788 -0.766044 0
    outer loop
      vertex -4.21324 -3.53533 0
      vertex -2.75 -4.76314 4.2
      vertex -4.21324 -3.53533 4.2
    endloop
  endfacet
  facet normal -0.642788 -0.766044 -0
    outer loop
      vertex -2.75 -4.76314 4.2
      vertex -4.21324 -3.53533 0
      vertex -2.75 -4.76314 0
    endloop
  endfacet
endsolid OpenSCAD_Model
